<svg width="202" height="30" viewBox="0 0 202 30" fill="none" xmlns="http://www.w3.org/2000/svg">
<g clip-path="url(#clip0_2509_1383)">
<path d="M0 29.2339H12.2583C15.6044 29.2339 17.9531 29.1062 20.1409 28.1807C23.7766 26.5849 24.967 23.4254 24.967 21.1913C24.967 19.5637 24.3879 17.9679 23.3583 16.8509C21.7496 15.0637 19.4009 14.6807 17.6314 14.3935C19.2079 14.0743 22.007 13.4998 23.3262 10.5637C23.4227 10.2764 23.8409 9.3509 23.8409 7.78707C23.8409 5.04239 22.3931 2.23388 18.8218 1.08494C17.0522 0.510472 14.2853 0.382812 11.2287 0.382812H0V29.2339ZM12.9018 5.77643C14.2853 5.77643 16.7305 5.90409 16.7305 8.68068C16.7305 11.6807 14.06 11.7445 12.387 11.7764H6.91741V5.77643H12.9018ZM13.2235 17.0105C14.7035 17.0743 17.5992 17.1062 17.5992 20.5849C17.5992 23.8722 14.414 23.9679 12.0009 23.9998H6.91741V17.0105H13.2235Z" fill="#CBDDDE"/>
<path d="M35.2399 7.88258H29.0625V29.2337H35.433V17.2336C35.433 14.5209 36.3338 14.0741 39.3582 13.5315L41.4817 13.2124V7.65918C38.1677 7.97833 36.6556 8.93578 35.2399 10.1166V7.88258Z" fill="#CBDDDE"/>
<path d="M55.5081 7.24455C47.2715 6.79774 43.1211 11.9999 43.1211 18.5424C43.1211 26.4254 48.6229 29.8403 54.7037 29.8403C63.1012 29.8403 66.222 23.936 66.222 18.5424C66.222 14.6488 64.2916 7.75519 55.5081 7.24455ZM54.3177 12.2552C55.2185 12.1594 56.6985 12.1914 58.0177 13.436C59.2081 14.5531 59.7872 16.4041 59.7872 18.7658C59.7872 22.1169 58.1142 24.8616 54.7037 24.8616C51.1646 24.8616 49.4915 21.8935 49.4915 18.4786C49.4915 17.0105 49.7811 15.5424 50.5855 14.3297C51.4542 12.9892 52.5159 12.3509 54.3177 12.2552Z" fill="#CBDDDE"/>
<path d="M81.2464 7.24455C73.0098 6.79774 68.8594 11.9999 68.8594 18.5424C68.8594 26.4254 74.3611 29.8403 80.442 29.8403C88.8394 29.8403 91.9603 23.936 91.9603 18.5424C91.9603 14.6488 90.0299 7.75519 81.2464 7.24455ZM80.0559 12.2552C80.9568 12.1594 82.4368 12.1914 83.7559 13.436C84.9464 14.5531 85.5255 16.4041 85.5255 18.7658C85.5255 22.1169 83.8525 24.8616 80.442 24.8616C76.9029 24.8616 75.2298 21.8935 75.2298 18.4786C75.2298 17.0105 75.5194 15.5424 76.3237 14.3297C77.1924 12.9892 78.2542 12.3509 80.0559 12.2552Z" fill="#CBDDDE"/>
<path d="M96.0469 29.2339H102.224V22.5637L104.927 20.0424L110.461 29.2339H117.797L109.431 15.5105L116.831 7.91473H109.206L102.256 15.2232V0.382812H96.0469V29.2339Z" fill="#CBDDDE"/>
<path d="M121.117 8.39362H117.707V12.2553H121.085V29.234H127.391V12.2553H131.574V8.39362H127.327C127.295 5.55319 127.424 5.04255 129.804 5.04255H131.381V0.351064C130.094 0.191479 128.807 0 127.552 0C124.528 0 122.823 1.08511 122.018 2.1383C121.214 3.28723 121.15 4.69149 121.117 5.7766V8.39362ZM134.759 5.26596H141.001V0.351064H134.759V5.26596ZM134.759 29.234H141.001V7.91489H134.759V29.234Z" fill="#CBDDDE"/>
<path d="M162.006 21.3831C161.234 22.915 160.043 25.1491 156.568 25.1491C153.158 25.1491 151.646 22.5001 151.678 19.8512H167.025C166.961 17.4257 166.8 13.2767 164.001 10.2767C161.234 7.34055 157.534 7.21289 156.247 7.21289C147.753 7.21289 145.211 13.8193 145.211 18.9895C145.211 25.9788 149.683 30.0001 156.086 30.0001C159.528 30.0001 162.328 28.6916 164.194 27.0001C165.32 25.9788 166.06 24.8937 166.8 23.8086L162.006 21.3831ZM151.71 15.9257C151.935 15.032 152.128 14.0427 152.997 13.0852C153.608 12.4469 154.67 11.7129 156.214 11.7129C157.308 11.7129 158.499 12.1278 159.303 12.8937C160.204 13.8193 160.365 15.032 160.494 15.9257H151.71Z" fill="#CBDDDE"/>
<path d="M170.703 0.382812V29.2339H177.041V0.382812H170.703Z" fill="#CBDDDE"/>
<path d="M195.853 0.382812V9.51047C194.727 8.64877 193.022 7.34026 190.19 7.34026C185.847 7.34026 181.246 10.6594 181.246 18.702C181.246 20.0743 181.246 24.3828 184.367 27.3509C186.072 28.9786 188.292 29.8083 190.416 29.8083C193.601 29.8083 195.242 28.2126 196.239 27.2232V29.2339H201.998V0.382812H195.853ZM193.762 24.5424C193.15 24.9573 192.41 25.1807 191.703 25.1807C188.485 25.1807 187.681 21.5424 187.681 18.5743C187.681 17.6169 187.681 12.0317 192.153 12.0317C193.44 12.0317 194.341 12.9254 194.63 13.3083C195.982 14.936 195.982 17.5849 195.982 18.5743C195.982 19.7552 195.982 23.0105 193.762 24.5424Z" fill="#CBDDDE"/>
</g>
<defs>
<clipPath id="clip0_2509_1383">
<rect width="202" height="30" fill="white"/>
</clipPath>
</defs>
</svg>
