<svg width="116" height="29" viewBox="0 0 116 29" fill="none" xmlns="http://www.w3.org/2000/svg">
<path d="M52.7625 14.1472C56.4088 12.9357 57.0698 9.88084 57.0625 7.39068C57.0551 3.58375 54.3658 0.296215 46.4063 0.296215L31.5469 0.293287V28.873H46.3653C54.3746 28.873 57.3204 24.7691 57.3204 20.6579C57.3204 15.679 52.7625 14.1472 52.7625 14.1472ZM38.5992 6.51137H48.6032L48.6384 6.51868C49.7669 6.71766 50.589 7.67598 50.589 8.79962C50.589 9.95106 49.7082 11.0352 48.5446 11.1932L38.6036 11.2093L38.5992 6.51137ZM48.121 22.2117H38.5992V17.4289H48.3541L48.376 17.4318C49.5895 17.5693 50.5099 18.5774 50.5099 19.7727C50.5099 21.0792 49.421 22.1941 48.121 22.2117Z" fill="#CBDDDE"/>
<path d="M90.5938 0.298721H115.702L115.687 6.53436H97.5713L97.5889 11.1416H113.921V17.4109H97.5889V22.3956H115.708L115.703 28.9326H90.5938" fill="#CBDDDE"/>
<path d="M75.988 0.333825H60.8047V28.9238H67.7764V17.3553L75.456 17.348C77.6544 17.3816 79.3647 19.1783 79.3647 21.3963V28.8975L86.1884 28.8946L86.1767 19.6699C86.1767 15.3947 82.0394 14.1306 82.0394 14.1306C82.0394 14.1306 86.269 12.8695 86.269 7.816C86.269 1.63157 80.9475 0.333825 75.988 0.333825ZM79.7941 9.203C79.6681 10.1438 78.7272 11.1635 77.5518 11.1635L67.7515 11.1665V6.58995H77.5547C78.7272 6.58995 79.6446 7.44877 79.7941 8.57973" fill="#CBDDDE"/>
<path d="M27.0279 22.0151C26.9297 22.0166 17.4973 22.198 14.2408 21.882C8.99993 21.3699 7.14159 17.4913 7.14159 14.3281C7.14159 10.3793 9.83677 7.47653 14.0107 6.93227C15.998 6.67184 26.855 6.79474 26.9708 6.79474L27.1979 6.79913L27.2214 0.297209H26.9913L14.701 0.320616C13.3322 0.404012 11.0635 0.541541 8.73906 1.48962C6.50992 2.51084 4.56658 4.07926 3.11713 6.02955C1.27051 8.51093 0.292969 11.459 0.292969 14.549C0.292969 15.5235 0.370644 16.4876 0.52746 17.4138C1.4112 21.7474 4.25881 25.3363 8.34042 27.2647C9.71806 27.8704 11.8446 28.5946 16.1299 28.836L18.4397 28.8843L27.0059 28.8916H27.2331L27.2566 22.0122" fill="#CBDDDE"/>
</svg>
