<svg width="114" height="115" viewBox="0 0 114 115" fill="none" xmlns="http://www.w3.org/2000/svg">
<path d="M114 57.5C82.5083 57.5 57 83.2638 57 115C57 83.232 31.4602 57.5 0 57.5C31.4917 57.5 57 31.768 57 0C57 31.768 82.5083 57.5 114 57.5Z" fill="#FF5B2C"/>
<path d="M71.196 63.628L65.344 58.896C66.072 57.272 66.8 54.864 66.8 52.652L64.028 52.596C64.056 54.36 63.692 56.208 63.3 57.244L51.428 47.612H63.524L65.092 44.756H47.536V47.976L52.66 52.12V52.932C52.072 52.764 51.484 52.68 50.896 52.68C47.648 52.68 44.848 55.368 44.848 59.036C44.848 63.544 48.936 66.568 54.48 66.568C58.68 66.568 62.376 64.356 64.028 61.192L71.168 66.932L71.196 63.628ZM61.48 60.044C60.136 62.452 57.336 63.908 54.704 63.908C51.204 63.908 48.32 62.228 48.32 59.008C48.32 56.46 50.196 54.472 52.996 54.472C54.256 54.472 55.656 54.864 57.196 55.76L61.48 59.204V60.044Z" fill="white"/>
<path d="M71.196 63.628L72.196 63.6365L72.2001 63.1539L71.8248 62.8504L71.196 63.628ZM65.344 58.896L64.4315 58.4869L64.1166 59.1895L64.7152 59.6736L65.344 58.896ZM66.8 52.652H67.8V51.672L66.8202 51.6522L66.8 52.652ZM64.028 52.596L64.0482 51.5962L63.0117 51.5753L63.0281 52.6119L64.028 52.596ZM63.3 57.244L62.67 58.0206L63.7453 58.893L64.2353 57.5979L63.3 57.244ZM51.428 47.612V46.612H48.6082L50.798 48.3886L51.428 47.612ZM63.524 47.612V48.612H64.1158L64.4006 48.0933L63.524 47.612ZM65.092 44.756L65.9686 45.2373L66.7818 43.756H65.092V44.756ZM47.536 44.756V43.756H46.536V44.756H47.536ZM47.536 47.976H46.536V48.4534L46.9072 48.7535L47.536 47.976ZM52.66 52.12H53.66V51.6426L53.2888 51.3425L52.66 52.12ZM52.66 52.932L52.3853 53.8935L53.66 54.2577V52.932H52.66ZM64.028 61.192L64.6546 60.4126L63.7053 59.6495L63.1416 60.7292L64.028 61.192ZM71.168 66.932L70.5414 67.7114L72.1505 69.0049L72.168 66.9405L71.168 66.932ZM61.48 60.044L62.3532 60.5314L62.48 60.3042V60.044H61.48ZM57.196 55.76L57.8226 54.9806L57.7639 54.9335L57.6989 54.8957L57.196 55.76ZM61.48 59.204H62.48V58.7248L62.1066 58.4246L61.48 59.204ZM71.8248 62.8504L65.9728 58.1184L64.7152 59.6736L70.5672 64.4056L71.8248 62.8504ZM66.2565 59.3051C67.0201 57.6017 67.8 55.0506 67.8 52.652H65.8C65.8 54.6774 65.1239 56.9422 64.4315 58.4869L66.2565 59.3051ZM66.8202 51.6522L64.0482 51.5962L64.0078 53.5958L66.7798 53.6518L66.8202 51.6522ZM63.0281 52.6119C63.0543 54.2585 62.709 55.9801 62.3647 56.8901L64.2353 57.5979C64.675 56.4359 65.0577 54.4615 65.0279 52.5801L63.0281 52.6119ZM63.93 56.4674L52.058 46.8354L50.798 48.3886L62.67 58.0206L63.93 56.4674ZM51.428 48.612H63.524V46.612H51.428V48.612ZM64.4006 48.0933L65.9686 45.2373L64.2154 44.2747L62.6474 47.1307L64.4006 48.0933ZM65.092 43.756H47.536V45.756H65.092V43.756ZM46.536 44.756V47.976H48.536V44.756H46.536ZM46.9072 48.7535L52.0312 52.8975L53.2888 51.3425L48.1648 47.1985L46.9072 48.7535ZM51.66 52.12V52.932H53.66V52.12H51.66ZM52.9347 51.9705C52.261 51.778 51.5806 51.68 50.896 51.68V53.68C51.3874 53.68 51.883 53.75 52.3853 53.8935L52.9347 51.9705ZM50.896 51.68C47.0752 51.68 43.848 54.8365 43.848 59.036H45.848C45.848 55.8995 48.2208 53.68 50.896 53.68V51.68ZM43.848 59.036C43.848 61.6236 45.0331 63.7908 46.9752 65.2851C48.8995 66.7656 51.5353 67.568 54.48 67.568V65.568C51.8807 65.568 49.7005 64.8584 48.1948 63.6999C46.7069 62.5552 45.848 60.9564 45.848 59.036H43.848ZM54.48 67.568C59.0135 67.568 63.0727 65.1822 64.9144 61.6548L63.1416 60.7292C61.6793 63.5298 58.3465 65.568 54.48 65.568V67.568ZM63.4014 61.9714L70.5414 67.7114L71.7946 66.1526L64.6546 60.4126L63.4014 61.9714ZM72.168 66.9405L72.196 63.6365L70.196 63.6195L70.168 66.9235L72.168 66.9405ZM60.6068 59.5566C59.457 61.6167 57.011 62.908 54.704 62.908V64.908C57.661 64.908 60.815 63.2873 62.3532 60.5314L60.6068 59.5566ZM54.704 62.908C53.0978 62.908 51.7224 62.5203 50.7784 61.8501C49.8683 61.204 49.32 60.2752 49.32 59.008H47.32C47.32 60.9608 48.2137 62.482 49.6206 63.4809C50.9936 64.4557 52.8102 64.908 54.704 64.908V62.908ZM49.32 59.008C49.32 57.0163 50.7442 55.472 52.996 55.472V53.472C49.6478 53.472 47.32 55.9037 47.32 59.008H49.32ZM52.996 55.472C54.0427 55.472 55.2707 55.7968 56.6931 56.6243L57.6989 54.8957C56.0413 53.9312 54.4693 53.472 52.996 53.472V55.472ZM56.5694 56.5394L60.8534 59.9834L62.1066 58.4246L57.8226 54.9806L56.5694 56.5394ZM60.48 59.204V60.044H62.48V59.204H60.48Z" fill="white"/>
</svg>
