<svg width="217" height="125" viewBox="0 0 217 125" fill="none" xmlns="http://www.w3.org/2000/svg">
<rect x="0.75" y="0.75" width="215.5" height="123.5" rx="61.75" fill="#FFB800" stroke="#FFB800" stroke-width="1.5"/>
<rect x="8.75" y="8.75" width="199.5" height="107.5" rx="53.75" stroke="white" stroke-width="1.5"/>
<rect x="8.75" y="8.75" width="155.5" height="107.5" rx="53.75" stroke="white" stroke-width="1.5"/>
<path fill-rule="evenodd" clip-rule="evenodd" d="M50.1982 28L46 32.1982L59.8916 46.0898L49.0842 46.0974L49.0801 52L69.9853 51.9853L70 31.0801L64.0974 31.0842L64.0898 41.8916L50.1982 28ZM50.4411 50.6389L50.4434 47.4566L63.1729 47.4476L47.9235 32.1982L50.1982 29.9235L50.1982 29.9235L47.9235 32.1982L63.1729 47.4476L50.4434 47.4566L50.4412 50.639L50.4411 50.6389ZM68.6389 32.4411L65.4566 32.4434L65.4476 45.1728L65.4477 45.1729L65.4566 32.4434L68.6389 32.4411Z" fill="#2639E2"/>
<path d="M54 74H47.328C47.2533 74 47.184 73.9733 47.12 73.92C47.0667 73.856 47.04 73.7813 47.04 73.696V63.424C47.04 63.3387 47.0667 63.2693 47.12 63.216C47.184 63.152 47.2533 63.12 47.328 63.12H48.576C48.6613 63.12 48.7307 63.152 48.784 63.216C48.848 63.2693 48.88 63.3387 48.88 63.424V72.112C48.88 72.1867 48.9067 72.256 48.96 72.32C49.024 72.3733 49.0987 72.4 49.184 72.4H54C54.0853 72.4 54.1547 72.432 54.208 72.496C54.272 72.5493 54.304 72.6187 54.304 72.704V73.712C54.304 73.7867 54.272 73.856 54.208 73.92C54.1547 73.9733 54.0853 74 54 74ZM60.6511 71.696C60.7258 71.6 60.8005 71.5307 60.8751 71.488C60.9605 71.4453 61.0565 71.424 61.1631 71.424H62.2831C62.4218 71.424 62.5125 71.4613 62.5551 71.536C62.6085 71.6107 62.6031 71.7173 62.5391 71.856C62.2298 72.5493 61.7338 73.104 61.0511 73.52C60.3791 73.9253 59.6165 74.128 58.7631 74.128C57.5578 74.128 56.5711 73.7493 55.8031 72.992C55.0458 72.224 54.6671 71.2373 54.6671 70.032C54.6671 68.8373 55.0565 67.8507 55.8351 67.072C56.6138 66.2933 57.6005 65.904 58.7951 65.904C59.9791 65.904 60.9551 66.2933 61.7231 67.072C62.4911 67.84 62.8751 68.8267 62.8751 70.032C62.8751 70.1813 62.8431 70.2987 62.7791 70.384C62.7151 70.4587 62.6245 70.496 62.5071 70.496H56.4911C56.5445 71.1253 56.7791 71.632 57.1951 72.016C57.6218 72.3893 58.1498 72.576 58.7791 72.576C59.1631 72.576 59.5205 72.5013 59.8511 72.352C60.1818 72.192 60.4485 71.9733 60.6511 71.696ZM58.7791 67.456C58.1925 67.456 57.6858 67.632 57.2591 67.984C56.8431 68.3253 56.5925 68.7733 56.5071 69.328H61.0031C60.9071 68.7627 60.6565 68.3093 60.2511 67.968C59.8458 67.6267 59.3551 67.456 58.7791 67.456ZM67.8078 74H67.0398C66.2184 74 65.6211 73.8187 65.2478 73.456C64.8744 73.0827 64.6878 72.496 64.6878 71.696V67.584H63.7918C63.7064 67.584 63.6318 67.5573 63.5678 67.504C63.5144 67.44 63.4878 67.3707 63.4878 67.296V66.368C63.4878 66.2827 63.5198 66.2133 63.5838 66.16C63.6478 66.096 63.7171 66.064 63.7918 66.064H64.6878V64.384C64.6878 64.2987 64.7144 64.2293 64.7678 64.176C64.8318 64.112 64.9011 64.08 64.9758 64.08H66.1278C66.2131 64.08 66.2824 64.112 66.3358 64.176C66.3998 64.2293 66.4318 64.2987 66.4318 64.384V66.064H67.7918C67.8771 66.064 67.9464 66.096 67.9998 66.16C68.0638 66.2133 68.0958 66.2827 68.0958 66.368V67.296C68.0958 67.3707 68.0638 67.44 67.9998 67.504C67.9464 67.5573 67.8771 67.584 67.7918 67.584H66.4318V71.408C66.4318 71.792 66.5118 72.064 66.6718 72.224C66.8318 72.384 67.0984 72.464 67.4718 72.464H67.8078C67.8931 72.464 67.9624 72.496 68.0158 72.56C68.0798 72.6133 68.1118 72.6827 68.1118 72.768V73.712C68.1118 73.7867 68.0798 73.856 68.0158 73.92C67.9624 73.9733 67.8931 74 67.8078 74ZM70.0416 66.72H69.2576C69.183 66.72 69.119 66.6933 69.0656 66.64C69.0123 66.5867 68.9803 66.5173 68.9696 66.432L68.7616 63.424C68.751 63.3387 68.7723 63.2693 68.8256 63.216C68.8896 63.152 68.9643 63.12 69.0496 63.12H70.2336C70.319 63.12 70.3936 63.152 70.4576 63.216C70.5216 63.2693 70.5483 63.3387 70.5376 63.424L70.3456 66.432C70.335 66.5173 70.303 66.5867 70.2496 66.64C70.1963 66.6933 70.127 66.72 70.0416 66.72ZM78.568 68.032C78.6 68.1493 78.5893 68.24 78.536 68.304C78.4933 68.368 78.408 68.4 78.28 68.4H77.256C77.1493 68.4 77.064 68.384 77 68.352C76.9467 68.3093 76.904 68.24 76.872 68.144C76.7653 67.888 76.5467 67.6907 76.216 67.552C75.896 67.4133 75.48 67.344 74.968 67.344C74.4347 67.344 74.0187 67.424 73.72 67.584C73.4213 67.7333 73.272 67.9467 73.272 68.224C73.272 68.48 73.4 68.6827 73.656 68.832C73.912 68.9707 74.488 69.0987 75.384 69.216C76.024 69.312 76.4933 69.3973 76.792 69.472C77.1013 69.5467 77.3733 69.632 77.608 69.728C78.0027 69.92 78.296 70.1653 78.488 70.464C78.68 70.752 78.776 71.104 78.776 71.52C78.776 72.3307 78.44 72.9707 77.768 73.44C77.096 73.8987 76.1947 74.128 75.064 74.128C74.0187 74.128 73.192 73.9413 72.584 73.568C71.976 73.184 71.5973 72.6187 71.448 71.872C71.4267 71.7653 71.4373 71.6853 71.48 71.632C71.5227 71.568 71.5973 71.536 71.704 71.536H72.824C72.92 71.536 73 71.5573 73.064 71.6C73.128 71.632 73.1813 71.6907 73.224 71.776C73.3413 72.096 73.5547 72.3307 73.864 72.48C74.184 72.6293 74.6213 72.704 75.176 72.704C75.752 72.704 76.2053 72.6187 76.536 72.448C76.8667 72.2667 77.032 72.016 77.032 71.696C77.032 71.4293 76.8987 71.2213 76.632 71.072C76.3653 70.9227 75.784 70.7893 74.888 70.672C74.248 70.5973 73.7733 70.5227 73.464 70.448C73.1653 70.3733 72.904 70.288 72.68 70.192C72.2853 70.0107 71.992 69.776 71.8 69.488C71.608 69.1893 71.512 68.832 71.512 68.416C71.512 67.616 71.8213 66.9973 72.44 66.56C73.0693 66.1227 73.9493 65.904 75.08 65.904C76.0507 65.904 76.8347 66.0853 77.432 66.448C78.0293 66.8107 78.408 67.3387 78.568 68.032ZM87.7261 76.944H86.5421C86.4568 76.944 86.3821 76.912 86.3181 76.848C86.2648 76.7947 86.2381 76.7307 86.2381 76.656V75.696C86.2381 75.6213 86.2701 75.552 86.3341 75.488C86.3981 75.424 86.4675 75.392 86.5421 75.392H87.4381C87.9928 75.392 88.3981 75.2587 88.6541 74.992C88.9208 74.736 89.0541 74.3307 89.0541 73.776V72.896C88.7235 73.2693 88.3395 73.5573 87.9021 73.76C87.4648 73.952 86.9901 74.048 86.4781 74.048C85.3581 74.048 84.4195 73.6587 83.6621 72.88C82.9048 72.0907 82.5261 71.12 82.5261 69.968C82.5261 68.816 82.9048 67.8507 83.6621 67.072C84.4301 66.2933 85.3741 65.904 86.4941 65.904C87.0168 65.904 87.4968 66.0053 87.9341 66.208C88.3715 66.4 88.7501 66.688 89.0701 67.072V66.368C89.0701 66.2827 89.0968 66.2133 89.1501 66.16C89.2141 66.096 89.2835 66.064 89.3581 66.064H90.4941C90.5795 66.064 90.6488 66.096 90.7021 66.16C90.7661 66.2133 90.7981 66.2827 90.7981 66.368V73.904C90.7981 74.864 90.5261 75.6107 89.9821 76.144C89.4488 76.6773 88.6968 76.944 87.7261 76.944ZM84.2861 70.016C84.2861 70.72 84.5208 71.3173 84.9901 71.808C85.4595 72.288 86.0301 72.528 86.7021 72.528C87.3741 72.528 87.9395 72.288 88.3981 71.808C88.8675 71.328 89.1021 70.7307 89.1021 70.016C89.1021 69.3013 88.8675 68.704 88.3981 68.224C87.9395 67.744 87.3741 67.504 86.7021 67.504C86.0301 67.504 85.4595 67.7493 84.9901 68.24C84.5208 68.72 84.2861 69.312 84.2861 70.016ZM98.1355 71.696C98.2102 71.6 98.2848 71.5307 98.3595 71.488C98.4448 71.4453 98.5408 71.424 98.6475 71.424H99.7675C99.9062 71.424 99.9968 71.4613 100.04 71.536C100.093 71.6107 100.088 71.7173 100.024 71.856C99.7142 72.5493 99.2182 73.104 98.5355 73.52C97.8635 73.9253 97.1008 74.128 96.2475 74.128C95.0422 74.128 94.0555 73.7493 93.2875 72.992C92.5302 72.224 92.1515 71.2373 92.1515 70.032C92.1515 68.8373 92.5408 67.8507 93.3195 67.072C94.0982 66.2933 95.0848 65.904 96.2795 65.904C97.4635 65.904 98.4395 66.2933 99.2075 67.072C99.9755 67.84 100.36 68.8267 100.36 70.032C100.36 70.1813 100.328 70.2987 100.264 70.384C100.2 70.4587 100.109 70.496 99.9915 70.496H93.9755C94.0288 71.1253 94.2635 71.632 94.6795 72.016C95.1062 72.3893 95.6342 72.576 96.2635 72.576C96.6475 72.576 97.0048 72.5013 97.3355 72.352C97.6662 72.192 97.9328 71.9733 98.1355 71.696ZM96.2635 67.456C95.6768 67.456 95.1702 67.632 94.7435 67.984C94.3275 68.3253 94.0768 68.7733 93.9915 69.328H98.4875C98.3915 68.7627 98.1408 68.3093 97.7355 67.968C97.3302 67.6267 96.8395 67.456 96.2635 67.456ZM105.292 74H104.524C103.703 74 103.105 73.8187 102.732 73.456C102.359 73.0827 102.172 72.496 102.172 71.696V67.584H101.276C101.191 67.584 101.116 67.5573 101.052 67.504C100.999 67.44 100.972 67.3707 100.972 67.296V66.368C100.972 66.2827 101.004 66.2133 101.068 66.16C101.132 66.096 101.201 66.064 101.276 66.064H102.172V64.384C102.172 64.2987 102.199 64.2293 102.252 64.176C102.316 64.112 102.385 64.08 102.46 64.08H103.612C103.697 64.08 103.767 64.112 103.82 64.176C103.884 64.2293 103.916 64.2987 103.916 64.384V66.064H105.276C105.361 66.064 105.431 66.096 105.484 66.16C105.548 66.2133 105.58 66.2827 105.58 66.368V67.296C105.58 67.3707 105.548 67.44 105.484 67.504C105.431 67.5573 105.361 67.584 105.276 67.584H103.916V71.408C103.916 71.792 103.996 72.064 104.156 72.224C104.316 72.384 104.583 72.464 104.956 72.464H105.292C105.377 72.464 105.447 72.496 105.5 72.56C105.564 72.6133 105.596 72.6827 105.596 72.768V73.712C105.596 73.7867 105.564 73.856 105.5 73.92C105.447 73.9733 105.377 74 105.292 74ZM53.568 86.032C53.6 86.1493 53.5893 86.24 53.536 86.304C53.4933 86.368 53.408 86.4 53.28 86.4H52.256C52.1493 86.4 52.064 86.384 52 86.352C51.9467 86.3093 51.904 86.24 51.872 86.144C51.7653 85.888 51.5467 85.6907 51.216 85.552C50.896 85.4133 50.48 85.344 49.968 85.344C49.4347 85.344 49.0187 85.424 48.72 85.584C48.4213 85.7333 48.272 85.9467 48.272 86.224C48.272 86.48 48.4 86.6827 48.656 86.832C48.912 86.9707 49.488 87.0987 50.384 87.216C51.024 87.312 51.4933 87.3973 51.792 87.472C52.1013 87.5467 52.3733 87.632 52.608 87.728C53.0027 87.92 53.296 88.1653 53.488 88.464C53.68 88.752 53.776 89.104 53.776 89.52C53.776 90.3307 53.44 90.9707 52.768 91.44C52.096 91.8987 51.1947 92.128 50.064 92.128C49.0187 92.128 48.192 91.9413 47.584 91.568C46.976 91.184 46.5973 90.6187 46.448 89.872C46.4267 89.7653 46.4373 89.6853 46.48 89.632C46.5227 89.568 46.5973 89.536 46.704 89.536H47.824C47.92 89.536 48 89.5573 48.064 89.6C48.128 89.632 48.1813 89.6907 48.224 89.776C48.3413 90.096 48.5547 90.3307 48.864 90.48C49.184 90.6293 49.6213 90.704 50.176 90.704C50.752 90.704 51.2053 90.6187 51.536 90.448C51.8667 90.2667 52.032 90.016 52.032 89.696C52.032 89.4293 51.8987 89.2213 51.632 89.072C51.3653 88.9227 50.784 88.7893 49.888 88.672C49.248 88.5973 48.7733 88.5227 48.464 88.448C48.1653 88.3733 47.904 88.288 47.68 88.192C47.2853 88.0107 46.992 87.776 46.8 87.488C46.608 87.1893 46.512 86.832 46.512 86.416C46.512 85.616 46.8213 84.9973 47.44 84.56C48.0693 84.1227 48.9493 83.904 50.08 83.904C51.0507 83.904 51.8347 84.0853 52.432 84.448C53.0293 84.8107 53.408 85.3387 53.568 86.032ZM58.6671 92H57.8991C57.0778 92 56.4805 91.8187 56.1071 91.456C55.7338 91.0827 55.5471 90.496 55.5471 89.696V85.584H54.6511C54.5658 85.584 54.4911 85.5573 54.4271 85.504C54.3738 85.44 54.3471 85.3707 54.3471 85.296V84.368C54.3471 84.2827 54.3791 84.2133 54.4431 84.16C54.5071 84.096 54.5765 84.064 54.6511 84.064H55.5471V82.384C55.5471 82.2987 55.5738 82.2293 55.6271 82.176C55.6911 82.112 55.7605 82.08 55.8351 82.08H56.9871C57.0725 82.08 57.1418 82.112 57.1951 82.176C57.2591 82.2293 57.2911 82.2987 57.2911 82.384V84.064H58.6511C58.7365 84.064 58.8058 84.096 58.8591 84.16C58.9231 84.2133 58.9551 84.2827 58.9551 84.368V85.296C58.9551 85.3707 58.9231 85.44 58.8591 85.504C58.8058 85.5573 58.7365 85.584 58.6511 85.584H57.2911V89.408C57.2911 89.792 57.3711 90.064 57.5311 90.224C57.6911 90.384 57.9578 90.464 58.3311 90.464H58.6671C58.7525 90.464 58.8218 90.496 58.8751 90.56C58.9391 90.6133 58.9711 90.6827 58.9711 90.768V91.712C58.9711 91.7867 58.9391 91.856 58.8751 91.92C58.8218 91.9733 58.7525 92 58.6671 92ZM67.541 92H66.437C66.3623 92 66.293 91.9733 66.229 91.92C66.1757 91.856 66.149 91.7813 66.149 91.696V90.896C65.8183 91.2907 65.429 91.5947 64.981 91.808C64.533 92.0213 64.0477 92.128 63.525 92.128C62.4157 92.128 61.477 91.7333 60.709 90.944C59.9517 90.1547 59.573 89.1787 59.573 88.016C59.573 86.8533 59.957 85.8773 60.725 85.088C61.493 84.2987 62.4317 83.904 63.541 83.904C64.0637 83.904 64.5437 84.0107 64.981 84.224C65.429 84.4267 65.8183 84.7253 66.149 85.12V84.368C66.149 84.2827 66.1757 84.2133 66.229 84.16C66.293 84.096 66.3623 84.064 66.437 84.064H67.541C67.6263 84.064 67.6957 84.096 67.749 84.16C67.813 84.2133 67.845 84.2827 67.845 84.368V91.696C67.845 91.7707 67.813 91.84 67.749 91.904C67.6957 91.968 67.6263 92 67.541 92ZM61.333 88.016C61.333 88.72 61.5677 89.3173 62.037 89.808C62.5063 90.288 63.077 90.528 63.749 90.528C64.421 90.528 64.9863 90.288 65.445 89.808C65.9143 89.328 66.149 88.7307 66.149 88.016C66.149 87.3013 65.9143 86.704 65.445 86.224C64.9863 85.744 64.421 85.504 63.749 85.504C63.077 85.504 62.5063 85.7493 62.037 86.24C61.5677 86.72 61.333 87.312 61.333 88.016ZM71.0864 92H69.9344C69.8597 92 69.7904 91.9733 69.7264 91.92C69.673 91.856 69.6464 91.7813 69.6464 91.696V84.368C69.6464 84.2827 69.673 84.2133 69.7264 84.16C69.7904 84.096 69.8597 84.064 69.9344 84.064H71.0384C71.1237 84.064 71.193 84.096 71.2464 84.16C71.3104 84.2133 71.3424 84.2827 71.3424 84.368V84.864C71.545 84.5547 71.7957 84.32 72.0944 84.16C72.393 83.9893 72.729 83.904 73.1024 83.904C73.3157 83.904 73.5077 83.9307 73.6784 83.984C73.8597 84.0267 73.9824 84.0907 74.0464 84.176C74.1104 84.208 74.1477 84.256 74.1584 84.32C74.1797 84.384 74.169 84.4533 74.1264 84.528L73.5504 85.568C73.5184 85.632 73.4704 85.6747 73.4064 85.696C73.3424 85.7173 73.273 85.7173 73.1984 85.696C73.081 85.664 72.9797 85.6427 72.8944 85.632C72.8197 85.6107 72.7504 85.6 72.6864 85.6C72.281 85.6 71.961 85.7493 71.7264 86.048C71.5024 86.336 71.3904 86.7253 71.3904 87.216V91.696C71.3904 91.7707 71.3584 91.84 71.2944 91.904C71.241 91.968 71.1717 92 71.0864 92ZM78.6359 92H77.8679C77.0465 92 76.4492 91.8187 76.0759 91.456C75.7025 91.0827 75.5159 90.496 75.5159 89.696V85.584H74.6199C74.5345 85.584 74.4599 85.5573 74.3959 85.504C74.3425 85.44 74.3159 85.3707 74.3159 85.296V84.368C74.3159 84.2827 74.3479 84.2133 74.4119 84.16C74.4759 84.096 74.5452 84.064 74.6199 84.064H75.5159V82.384C75.5159 82.2987 75.5425 82.2293 75.5959 82.176C75.6599 82.112 75.7292 82.08 75.8039 82.08H76.9559C77.0412 82.08 77.1105 82.112 77.1639 82.176C77.2279 82.2293 77.2599 82.2987 77.2599 82.384V84.064H78.6199C78.7052 84.064 78.7745 84.096 78.8279 84.16C78.8919 84.2133 78.9239 84.2827 78.9239 84.368V85.296C78.9239 85.3707 78.8919 85.44 78.8279 85.504C78.7745 85.5573 78.7052 85.584 78.6199 85.584H77.2599V89.408C77.2599 89.792 77.3399 90.064 77.4999 90.224C77.6599 90.384 77.9265 90.464 78.2999 90.464H78.6359C78.7212 90.464 78.7905 90.496 78.8439 90.56C78.9079 90.6133 78.9399 90.6827 78.9399 90.768V91.712C78.9399 91.7867 78.9079 91.856 78.8439 91.92C78.7905 91.9733 78.7212 92 78.6359 92ZM85.5418 89.696C85.6164 89.6 85.6911 89.5307 85.7658 89.488C85.8511 89.4453 85.9471 89.424 86.0538 89.424H87.1737C87.3124 89.424 87.4031 89.4613 87.4458 89.536C87.4991 89.6107 87.4938 89.7173 87.4298 89.856C87.1204 90.5493 86.6244 91.104 85.9418 91.52C85.2698 91.9253 84.5071 92.128 83.6538 92.128C82.4484 92.128 81.4618 91.7493 80.6938 90.992C79.9364 90.224 79.5578 89.2373 79.5578 88.032C79.5578 86.8373 79.9471 85.8507 80.7258 85.072C81.5044 84.2933 82.4911 83.904 83.6858 83.904C84.8698 83.904 85.8458 84.2933 86.6138 85.072C87.3818 85.84 87.7658 86.8267 87.7658 88.032C87.7658 88.1813 87.7338 88.2987 87.6698 88.384C87.6058 88.4587 87.5151 88.496 87.3978 88.496H81.3818C81.4351 89.1253 81.6698 89.632 82.0858 90.016C82.5124 90.3893 83.0404 90.576 83.6698 90.576C84.0538 90.576 84.4111 90.5013 84.7418 90.352C85.0724 90.192 85.3391 89.9733 85.5418 89.696ZM83.6698 85.456C83.0831 85.456 82.5764 85.632 82.1498 85.984C81.7338 86.3253 81.4831 86.7733 81.3978 87.328H85.8938C85.7978 86.7627 85.5471 86.3093 85.1418 85.968C84.7364 85.6267 84.2458 85.456 83.6698 85.456ZM96.6504 92H95.5624C95.4877 92 95.4184 91.9733 95.3544 91.92C95.301 91.856 95.2744 91.7813 95.2744 91.696V90.88C94.9437 91.2853 94.549 91.5947 94.0904 91.808C93.6424 92.0213 93.157 92.128 92.6344 92.128C91.525 92.128 90.5864 91.7333 89.8184 90.944C89.061 90.1547 88.6824 89.1787 88.6824 88.016C88.6824 86.8533 89.0664 85.8773 89.8344 85.088C90.6024 84.2987 91.541 83.904 92.6504 83.904C93.1517 83.904 93.621 84.0053 94.0584 84.208C94.4957 84.4 94.8797 84.688 95.2104 85.072V81.424C95.2104 81.3387 95.237 81.2693 95.2904 81.216C95.3544 81.152 95.4237 81.12 95.4984 81.12H96.6504C96.7357 81.12 96.805 81.152 96.8584 81.216C96.9224 81.2693 96.9544 81.3387 96.9544 81.424V91.696C96.9544 91.7707 96.9224 91.84 96.8584 91.904C96.805 91.968 96.7357 92 96.6504 92ZM90.4424 88.016C90.4424 88.72 90.677 89.3173 91.1464 89.808C91.6157 90.288 92.1864 90.528 92.8584 90.528C93.5304 90.528 94.0957 90.288 94.5544 89.808C95.0237 89.328 95.2584 88.7307 95.2584 88.016C95.2584 87.3013 95.0237 86.704 94.5544 86.224C94.0957 85.744 93.5304 85.504 92.8584 85.504C92.1864 85.504 91.6157 85.7493 91.1464 86.24C90.677 86.72 90.4424 87.312 90.4424 88.016Z" fill="#2639E2"/>
</svg>
