<svg width="134" height="134" viewBox="0 0 134 134" fill="none" xmlns="http://www.w3.org/2000/svg">
<circle cx="67" cy="67" r="67" fill="#2639E2"/>
<g clip-path="url(#clip0_2497_765)">
<path d="M28.0639 51.2394C28.0873 51.2542 28.1136 51.2637 28.141 51.2673C28.1684 51.2709 28.1962 51.2685 28.2226 51.2603C28.249 51.252 28.2733 51.2382 28.2938 51.2196C28.3144 51.201 28.3307 51.1782 28.3417 51.1527L28.7152 50.4014C28.7342 50.3485 28.7342 50.2906 28.7152 50.2377C28.7077 50.2129 28.6954 50.1899 28.679 50.1701C28.6625 50.1502 28.6423 50.1339 28.6194 50.1221L23.8308 47.7527L27.0009 46.9725C27.0583 46.9725 27.1062 46.9725 27.1158 46.9147C27.1254 46.8569 27.1158 46.8377 27.1158 46.7799L25.8037 43.7266V43.6784L30.5923 46.0478C30.6178 46.0599 30.6456 46.0661 30.6737 46.0661C30.7018 46.0661 30.7296 46.0599 30.7551 46.0478C30.7802 46.0415 30.8036 46.0295 30.8235 46.0129C30.8434 45.9962 30.8593 45.9752 30.87 45.9515L31.2435 45.2002C31.2555 45.1746 31.2617 45.1467 31.2617 45.1184C31.2617 45.0901 31.2555 45.0621 31.2435 45.0365C31.2244 44.9858 31.1867 44.9445 31.1382 44.9209L24.846 41.7809C24.7934 41.7618 24.7358 41.7618 24.6832 41.7809C24.6568 41.7906 24.6328 41.8059 24.6129 41.8259C24.5931 41.8458 24.5778 41.87 24.5683 41.8965L24.2043 42.6285C24.1897 42.6723 24.1897 42.7196 24.2043 42.7634C24.1957 42.8112 24.1957 42.8601 24.2043 42.9079L25.6792 46.0864C25.6835 46.0954 25.6857 46.1053 25.6857 46.1153C25.6857 46.1253 25.6835 46.1351 25.6792 46.1442L22.2985 46.8858C22.2408 46.8988 22.1857 46.9216 22.1357 46.9532C22.0949 46.9749 22.0615 47.0085 22.0399 47.0496L21.6664 47.8201C21.6546 47.844 21.6484 47.8704 21.6484 47.8971C21.6484 47.9239 21.6546 47.9502 21.6664 47.9742C21.6743 48.0001 21.6879 48.0239 21.7061 48.0439C21.7244 48.0639 21.7468 48.0796 21.7717 48.0898L28.0639 51.2394Z" fill="white"/>
<path d="M28.8035 42.0219C29.1999 42.3499 29.6609 42.5899 30.156 42.726C30.6512 42.8621 31.1694 42.8913 31.6766 42.8117C32.6952 42.6368 33.6112 42.0831 34.2427 41.2606C34.8743 40.4381 35.1753 39.4068 35.0861 38.3715C35.0337 37.8637 34.8762 37.3727 34.6239 36.9298C34.3715 36.4869 34.0298 36.102 33.6208 35.7998C33.2218 35.4766 32.7603 35.2404 32.2657 35.1061C31.7711 34.9718 31.2542 34.9423 30.7476 35.0196C30.238 35.0879 29.7473 35.2587 29.3047 35.5218C28.8621 35.785 28.4767 36.135 28.1714 36.551C27.8464 36.9511 27.6064 37.4139 27.4664 37.9109C27.3264 38.4079 27.2893 38.9286 27.3573 39.4406C27.4085 39.9479 27.5633 40.439 27.8122 40.8833C28.061 41.3275 28.3985 41.7152 28.8035 42.0219ZM29.0429 37.206C29.2531 36.9325 29.5174 36.7057 29.819 36.54C30.1206 36.3742 30.4531 36.273 30.7955 36.2428C31.1461 36.2029 31.501 36.2334 31.8396 36.3327C32.1783 36.4319 32.494 36.5978 32.7684 36.8207C33.0546 37.0286 33.2957 37.2929 33.4768 37.5977C33.658 37.9024 33.7754 38.2411 33.8219 38.593C33.8689 38.9375 33.8472 39.2879 33.7581 39.6239C33.669 39.9598 33.5144 40.2746 33.3031 40.5498C33.0918 40.825 32.8282 41.0552 32.5276 41.2269C32.227 41.3986 31.8954 41.5084 31.5521 41.55C31.2015 41.5938 30.8456 41.5651 30.5064 41.4657C30.1671 41.3664 29.8516 41.1984 29.5792 40.9721C29.2954 40.7619 29.056 40.4969 28.8751 40.1926C28.6942 39.8883 28.5755 39.5508 28.5257 39.1998C28.4706 38.8541 28.4881 38.5007 28.5772 38.1622C28.6663 37.8238 28.8249 37.5079 29.0429 37.2349V37.206Z" fill="white"/>
<path d="M36.9713 37.3315C36.9889 37.3533 37.0107 37.3713 37.0354 37.3845C37.0601 37.3978 37.0871 37.4059 37.1149 37.4085C37.1409 37.4108 37.167 37.4076 37.1917 37.3994C37.2164 37.3911 37.2392 37.3778 37.2586 37.3604L39.4422 35.4918C39.8433 35.1707 40.1776 34.7732 40.4257 34.3219C40.6739 33.8707 40.8311 33.3747 40.8883 32.8623C40.945 32.3643 40.8948 31.8599 40.7412 31.383C40.5875 30.9061 40.334 30.4679 39.9976 30.098C39.6844 29.7015 39.2911 29.3764 38.8437 29.1439C38.3963 28.9115 37.905 28.7771 37.4022 28.7495C36.8897 28.7224 36.3769 28.7978 35.8936 28.9714C35.4103 29.145 34.966 29.4133 34.5866 29.7609L32.403 31.6294C32.3642 31.664 32.3402 31.7123 32.3359 31.7643C32.337 31.8192 32.3536 31.8727 32.3838 31.9184L36.9713 37.3315ZM34.0981 31.6294L35.3048 30.5989C35.563 30.3654 35.8666 30.1883 36.1963 30.0789C36.526 29.9695 36.8746 29.9301 37.2203 29.9631C37.9177 30.0408 38.5596 30.3828 39.0151 30.9197C39.4706 31.4565 39.7055 32.1478 39.672 32.8527C39.6484 33.204 39.5508 33.5463 39.3857 33.8568C39.2205 34.1673 38.9917 34.439 38.7143 34.6538L37.5172 35.6844C37.4932 35.6957 37.467 35.7015 37.4405 35.7015C37.4141 35.7015 37.3879 35.6957 37.3639 35.6844C37.3376 35.6867 37.3111 35.6816 37.2874 35.6697C37.2638 35.6578 37.2438 35.6396 37.2298 35.617L34.0502 31.8702C34.0311 31.8499 34.0168 31.8255 34.0085 31.7988C34.0002 31.7721 33.9981 31.7438 34.0023 31.7161C34.0201 31.6812 34.0465 31.6513 34.079 31.6294H34.0981Z" fill="white"/>
<path d="M43.0439 32.3028C43.0582 32.3275 43.0776 32.3488 43.1007 32.3654C43.1238 32.382 43.1502 32.3935 43.178 32.3991C43.2241 32.4179 43.2756 32.4179 43.3217 32.3991L47.6026 29.7407C47.6273 29.729 47.6489 29.7115 47.6655 29.6897C47.6822 29.668 47.6935 29.6425 47.6984 29.6155C47.7102 29.5916 47.7164 29.5652 47.7164 29.5385C47.7164 29.5117 47.7102 29.4853 47.6984 29.4614L47.3345 28.8642C47.3069 28.8172 47.2623 28.7827 47.21 28.7679C47.1574 28.7488 47.0998 28.7488 47.0472 28.7679L43.7909 30.7906C43.7417 30.8099 43.687 30.8099 43.6377 30.7906C43.588 30.776 43.5443 30.7456 43.5132 30.7039L42.5555 29.2206C42.5435 29.195 42.5373 29.167 42.5373 29.1387C42.5373 29.1104 42.5435 29.0825 42.5555 29.0569C42.57 29.0068 42.6002 28.9629 42.6417 28.9317L44.8827 27.5447C44.9073 27.5303 44.9285 27.5108 44.945 27.4876C44.9615 27.4643 44.9729 27.4378 44.9785 27.4098C44.9902 27.3876 44.9964 27.3628 44.9964 27.3376C44.9964 27.3124 44.9902 27.2876 44.9785 27.2653L44.6146 26.6682C44.6003 26.6435 44.5809 26.6222 44.5578 26.6056C44.5347 26.589 44.5083 26.5775 44.4805 26.5719C44.4311 26.5534 44.3767 26.5534 44.3273 26.5719L42.0862 27.9877C42.0336 28.0069 41.976 28.0069 41.9234 27.9877C41.8737 27.9731 41.83 27.9427 41.7989 27.9011L40.9465 26.4948C40.9346 26.4692 40.9284 26.4412 40.9284 26.4129C40.9284 26.3846 40.9346 26.3567 40.9465 26.3311C40.9612 26.2785 40.9955 26.2336 41.0423 26.2059L44.2411 24.2217C44.2631 24.2078 44.2822 24.1895 44.297 24.168C44.3118 24.1465 44.3221 24.1222 44.3273 24.0965C44.3391 24.0725 44.3452 24.0462 44.3452 24.0194C44.3452 23.9927 44.3391 23.9663 44.3273 23.9424L43.9633 23.3452C43.9505 23.3222 43.9326 23.3024 43.911 23.2874C43.8895 23.2724 43.8648 23.2625 43.8388 23.2585C43.8132 23.2471 43.7855 23.2412 43.7574 23.2412C43.7294 23.2412 43.7017 23.2471 43.676 23.2585L39.3567 25.9747C39.3338 25.9876 39.3142 26.0056 39.2992 26.0273C39.2843 26.049 39.2745 26.0738 39.2705 26.0999C39.2571 26.1233 39.25 26.1499 39.25 26.177C39.25 26.204 39.2571 26.2306 39.2705 26.254L43.0439 32.3028Z" fill="white"/>
<path d="M48.3038 29.105C48.3251 29.1556 48.3644 29.1965 48.4139 29.2196C48.4635 29.2427 48.5198 29.2465 48.572 29.2303L49.3573 28.8931C49.3823 28.8829 49.4047 28.8673 49.4229 28.8473C49.4412 28.8273 49.4547 28.8035 49.4627 28.7776C49.4819 28.728 49.4819 28.673 49.4627 28.6234L48.505 26.3503C48.4857 26.3008 48.4857 26.2458 48.505 26.1962C48.5132 26.1689 48.528 26.1441 48.548 26.124C48.5681 26.1038 48.5928 26.0889 48.6199 26.0806L49.8458 25.5605C49.8894 25.5465 49.9362 25.5465 49.9798 25.5605C50.0333 25.579 50.0822 25.6085 50.1235 25.6472L52.5274 27.4098C52.565 27.4427 52.6118 27.4629 52.6614 27.4676C52.7024 27.4768 52.7449 27.4768 52.7859 27.4676L53.7437 27.0727C53.774 27.0627 53.8005 27.0434 53.8194 27.0175C53.8382 26.9916 53.8486 26.9604 53.849 26.9282C53.8492 26.8923 53.8395 26.8571 53.8209 26.8265C53.8023 26.7958 53.7755 26.771 53.7437 26.7549L51.3206 25.0115C51.2873 24.9963 51.258 24.9737 51.2347 24.9453C51.2115 24.9169 51.195 24.8835 51.1866 24.8478C51.2005 24.7579 51.2404 24.6741 51.3015 24.607C51.6109 24.2843 51.8234 23.8803 51.9144 23.4415C51.9859 23.0149 51.9326 22.5766 51.7612 22.1798C51.6581 21.8793 51.4905 21.6054 51.2704 21.3774C51.0503 21.1493 50.783 20.9728 50.4874 20.8602C49.8155 20.6888 49.1046 20.7675 48.4858 21.0817L45.6701 22.2761C45.6464 22.2858 45.6249 22.3001 45.6068 22.3183C45.5887 22.3365 45.5744 22.3582 45.5648 22.382C45.5505 22.4069 45.543 22.4351 45.543 22.4639C45.543 22.4926 45.5505 22.5209 45.5648 22.5458L48.3038 29.105ZM47.2312 22.7962L49.0317 22.0353C49.1731 21.9709 49.3266 21.9376 49.4818 21.9376C49.6371 21.9376 49.7905 21.9709 49.932 22.0353C50.2267 22.1747 50.4565 22.4231 50.5736 22.7288C50.6395 22.8807 50.6736 23.0446 50.6736 23.2104C50.6736 23.3761 50.6395 23.5401 50.5736 23.692C50.5249 23.8394 50.4448 23.9743 50.339 24.0874C50.2331 24.2005 50.104 24.2891 49.9607 24.3469L48.1698 25.1078C48.1205 25.1272 48.0658 25.1272 48.0165 25.1078C47.9937 25.096 47.9734 25.0797 47.957 25.0598C47.9405 25.04 47.9282 25.017 47.9208 24.9922L47.1067 23.0659C47.0875 23.0163 47.0875 22.9613 47.1067 22.9118C47.1173 22.8842 47.134 22.8594 47.1556 22.8394C47.1771 22.8193 47.203 22.8046 47.2312 22.7962Z" fill="white"/>
<path d="M60.9163 25.253C60.9347 25.2033 60.9347 25.1486 60.9163 25.0989L59.3744 18.164C59.3601 18.1087 59.326 18.0607 59.2786 18.0292C59.2294 18.0098 59.1747 18.0098 59.1254 18.0292L58.3592 18.2025C58.3085 18.2149 58.2641 18.2458 58.2347 18.2892C58.2228 18.3148 58.2166 18.3428 58.2166 18.3711C58.2166 18.3994 58.2228 18.4273 58.2347 18.453L59.4127 23.6156L54.2985 19.2331C54.2551 19.1973 54.2067 19.1681 54.1549 19.1464C54.1107 19.1365 54.0649 19.1365 54.0208 19.1464L53.1972 19.3391C53.1464 19.3515 53.102 19.3824 53.0726 19.4258C53.0608 19.4497 53.0547 19.4761 53.0547 19.5028C53.0547 19.5296 53.0608 19.5559 53.0726 19.5799L54.6146 26.5244C54.6279 26.5801 54.6623 26.6285 54.7103 26.6593C54.7566 26.6771 54.8077 26.6771 54.854 26.6593L55.6202 26.4859C55.6725 26.4711 55.7171 26.4366 55.7447 26.3896C55.7622 26.3397 55.7622 26.2853 55.7447 26.2355L54.5379 21.015L59.6617 25.4649C59.7011 25.4968 59.7468 25.5197 59.7958 25.5323C59.8124 25.5395 59.8304 25.5432 59.8485 25.5432C59.8666 25.5432 59.8845 25.5395 59.9011 25.5323L60.7248 25.3493C60.7629 25.3593 60.8033 25.355 60.8385 25.3373C60.8737 25.3196 60.9014 25.2897 60.9163 25.253Z" fill="white"/>
<path d="M73.6926 25.513L78.6057 26.611C78.6548 26.6313 78.7098 26.6313 78.7589 26.611C78.7836 26.5992 78.8052 26.5818 78.8218 26.56C78.8385 26.5382 78.8497 26.5128 78.8547 26.4858L78.9983 25.8019C79.0101 25.778 79.0163 25.7516 79.0163 25.7249C79.0163 25.6981 79.0101 25.6717 78.9983 25.6478C78.9648 25.6023 78.9179 25.5686 78.8643 25.5515L75.1962 24.7328C75.142 24.7227 75.0938 24.6915 75.0621 24.6461C75.0438 24.5964 75.0438 24.5417 75.0621 24.492L75.4452 22.7968C75.4487 22.768 75.4593 22.7407 75.4761 22.7171C75.4928 22.6935 75.5151 22.6746 75.541 22.6619C75.5903 22.6426 75.645 22.6426 75.6942 22.6619L78.2609 23.2398C78.3102 23.2592 78.3649 23.2592 78.4141 23.2398C78.4585 23.2137 78.4924 23.1728 78.5099 23.1243L78.6536 22.4404C78.6655 22.4148 78.6717 22.3868 78.6717 22.3585C78.6717 22.3302 78.6655 22.3023 78.6536 22.2767C78.6428 22.2369 78.6208 22.2011 78.5902 22.1738C78.5596 22.1464 78.5217 22.1286 78.4812 22.1226L75.9145 21.5446C75.8871 21.5414 75.8608 21.5319 75.8375 21.5168C75.8143 21.5018 75.7948 21.4817 75.7804 21.458C75.7621 21.4082 75.7621 21.3536 75.7804 21.3038L76.1348 19.6953C76.1404 19.6673 76.1518 19.6408 76.1683 19.6176C76.1848 19.5944 76.206 19.5749 76.2305 19.5605C76.28 19.542 76.3343 19.542 76.3838 19.5605L80.0518 20.3888C80.1011 20.4082 80.1558 20.4082 80.2051 20.3888C80.2476 20.3565 80.2807 20.3132 80.3008 20.2636L80.4445 19.5798C80.4579 19.5563 80.465 19.5297 80.465 19.5027C80.465 19.4756 80.4579 19.4491 80.4445 19.4256C80.4169 19.3786 80.3723 19.3441 80.32 19.3293L75.4069 18.2313C75.3576 18.212 75.303 18.212 75.2537 18.2313C75.2301 18.2457 75.21 18.2654 75.1951 18.2887C75.1802 18.3121 75.1707 18.3386 75.1675 18.3661L73.6351 25.3107C73.6233 25.3346 73.6172 25.361 73.6172 25.3877C73.6172 25.4145 73.6233 25.4408 73.6351 25.4648C73.6522 25.4832 73.6715 25.4994 73.6926 25.513Z" fill="white"/>
<path d="M80.5108 27.1982C80.5623 27.1758 80.6034 27.1345 80.6257 27.0826L82.6082 22.0741C82.6082 22.0741 82.6082 22.0741 82.6082 22.1222L84.3033 28.7104L84.3704 28.8549L84.4566 28.9223L85.2323 29.2401C85.2578 29.2522 85.2856 29.2584 85.3137 29.2584C85.3418 29.2584 85.3696 29.2522 85.3951 29.2401C85.4455 29.2209 85.4866 29.183 85.51 29.1342L88.1629 22.5364C88.1819 22.4835 88.1819 22.4256 88.1629 22.3727C88.1374 22.3254 88.097 22.2881 88.048 22.2667L87.3201 21.9681C87.2963 21.9562 87.2701 21.9501 87.2435 21.9501C87.2169 21.9501 87.1907 21.9562 87.1669 21.9681C87.1419 21.9783 87.1195 21.994 87.1013 22.014C87.0831 22.034 87.0695 22.0578 87.0615 22.0837L85.1461 26.9959L83.4222 20.5137C83.4077 20.4623 83.3851 20.4135 83.3552 20.3692C83.3272 20.3325 83.2911 20.3029 83.2498 20.2826L82.4645 19.9647C82.4152 19.9454 82.3605 19.9454 82.3113 19.9647C82.2863 19.9749 82.2639 19.9906 82.2457 20.0106C82.2275 20.0306 82.2139 20.0544 82.2059 20.0803L79.5531 26.6685C79.5388 26.6933 79.5312 26.7216 79.5312 26.7503C79.5312 26.7791 79.5388 26.8073 79.5531 26.8322C79.5722 26.8828 79.6099 26.9242 79.6584 26.9478L80.3767 27.2367C80.4242 27.2375 80.4709 27.2241 80.5108 27.1982Z" fill="white"/>
<path d="M88.4393 31.08L89.1672 31.5423C89.2081 31.5522 89.2508 31.5522 89.2917 31.5423C89.3444 31.5321 89.3937 31.509 89.4354 31.4749L95.5935 26.9961C95.62 26.9772 95.6423 26.9528 95.6588 26.9246C95.6753 26.8964 95.6857 26.8649 95.6892 26.8324C95.6939 26.8007 95.6879 26.7684 95.6723 26.7405C95.6567 26.7126 95.6324 26.6907 95.603 26.6783L94.8848 26.2256C94.8385 26.2078 94.7873 26.2078 94.7411 26.2256C94.6849 26.2261 94.6306 26.2466 94.5879 26.2834L89.7993 29.8857H89.7514C89.7464 29.8769 89.7437 29.8669 89.7437 29.8568C89.7437 29.8466 89.7464 29.8367 89.7514 29.8279L90.9007 23.9236C90.9111 23.8662 90.9111 23.8075 90.9007 23.7502C90.8826 23.7098 90.8525 23.6761 90.8145 23.6539L90.0579 23.1723C90.032 23.1561 90.0022 23.1475 89.9717 23.1475C89.9412 23.1475 89.9113 23.1561 89.8855 23.1723C89.8585 23.1872 89.8351 23.2078 89.8169 23.2328C89.7987 23.2577 89.7861 23.2864 89.7801 23.3168L88.3627 30.7911C88.353 30.8452 88.353 30.9006 88.3627 30.9548C88.3662 30.9799 88.3748 31.0039 88.388 31.0255C88.4012 31.047 88.4187 31.0656 88.4393 31.08Z" fill="white"/>
<path d="M92.2415 33.6806C92.2491 33.7337 92.2765 33.7819 92.3181 33.8154L92.9789 34.3452C93.0045 34.3566 93.0323 34.3625 93.0603 34.3625C93.0884 34.3625 93.1161 34.3566 93.1417 34.3452C93.1936 34.3351 93.2408 34.308 93.2758 34.2681L97.6813 28.7106C97.6988 28.6607 97.6988 28.6063 97.6813 28.5565C97.6712 28.5015 97.6445 28.451 97.6047 28.412L96.9343 27.8822C96.9121 27.8704 96.8875 27.8643 96.8624 27.8643C96.8374 27.8643 96.8127 27.8704 96.7906 27.8822C96.7623 27.883 96.7347 27.8903 96.7097 27.9037C96.6848 27.9171 96.6633 27.9361 96.6469 27.9593L92.2415 33.5169C92.2216 33.5696 92.2216 33.6278 92.2415 33.6806Z" fill="white"/>
<path d="M94.2523 35.2026C94.2501 35.2287 94.2532 35.255 94.2615 35.2798C94.2697 35.3047 94.2829 35.3275 94.3002 35.3471L94.9131 35.9539C94.9299 35.9728 94.9506 35.9878 94.9738 35.9977C94.997 36.0077 95.022 36.0125 95.0472 36.0117C95.1049 36.0094 95.1596 35.9853 95.2004 35.9443L96.9243 34.2009C96.9636 34.1633 97.0141 34.1396 97.068 34.1335C97.0946 34.1325 97.1211 34.1372 97.1459 34.1471C97.1706 34.1571 97.193 34.1721 97.2116 34.1913L98.1694 35.1544C98.1878 35.1673 98.2027 35.1847 98.2128 35.2049C98.2228 35.2251 98.2276 35.2475 98.2268 35.27C98.2393 35.3271 98.2393 35.3863 98.2268 35.4434L97.5181 38.333C97.5045 38.3801 97.5045 38.4302 97.5181 38.4774C97.5294 38.5194 97.549 38.5587 97.5756 38.593L98.2843 39.2961C98.3116 39.3132 98.3431 39.3223 98.3753 39.3223C98.4074 39.3223 98.4389 39.3132 98.4662 39.2961C98.4989 39.2838 98.5268 39.2612 98.5458 39.2318C98.5648 39.2023 98.5738 39.1674 98.5716 39.1324L99.2516 36.2428C99.2537 36.2072 99.2633 36.1725 99.2798 36.1409C99.2963 36.1094 99.3193 36.0817 99.3473 36.0598C99.3952 36.0598 99.4814 36.0598 99.6155 36.0598C100.032 36.2273 100.487 36.2708 100.928 36.1851C101.344 36.0922 101.724 35.8778 102.019 35.5686C102.26 35.3616 102.452 35.1025 102.58 34.8106C102.707 34.5188 102.768 34.2017 102.757 33.8831C102.662 33.1923 102.322 32.5595 101.799 32.1012L99.5485 30.0111C99.5317 29.9922 99.511 29.9772 99.4878 29.9672C99.4646 29.9572 99.4396 29.9525 99.4144 29.9533C99.3854 29.9521 99.3566 29.9576 99.3301 29.9693C99.3035 29.9809 99.28 29.9985 99.2611 30.0207L94.2715 35.0581C94.2465 35.1019 94.2396 35.1538 94.2523 35.2026ZM97.9587 33.1607L99.4335 31.6677C99.469 31.6302 99.5165 31.6063 99.5676 31.6003C99.6211 31.6006 99.6724 31.6212 99.7113 31.6581L101.09 33.0451C101.204 33.152 101.293 33.2821 101.353 33.4266C101.412 33.5711 101.44 33.7267 101.435 33.8831C101.42 34.2094 101.28 34.517 101.042 34.7403C100.93 34.8631 100.794 34.9621 100.642 35.0315C100.491 35.101 100.328 35.1395 100.161 35.1448C100.008 35.1507 99.8542 35.1247 99.7109 35.0683C99.5675 35.012 99.4373 34.9265 99.3282 34.8173L97.9491 33.4304C97.913 33.3948 97.8923 33.3463 97.8916 33.2955C97.8959 33.2436 97.9199 33.1953 97.9587 33.1607Z" fill="white"/>
<path d="M100.075 39.9608C99.931 40.9915 100.181 42.0388 100.775 42.8914C101.368 43.744 102.261 44.3386 103.274 44.5551C103.77 44.6573 104.282 44.6536 104.777 44.544C105.272 44.4345 105.739 44.2218 106.147 43.9195C106.571 43.6346 106.931 43.2639 107.205 42.8311C107.479 42.3982 107.66 41.9127 107.737 41.4056C107.895 40.3778 107.652 39.3284 107.06 38.476C106.468 37.6236 105.571 37.0341 104.557 36.8304C104.06 36.7344 103.548 36.742 103.054 36.8531C102.56 36.9641 102.093 37.176 101.684 37.4758C101.259 37.7551 100.896 38.1202 100.619 38.548C100.342 38.9759 100.157 39.457 100.075 39.9608ZM102.421 38.4967C102.706 38.2859 103.03 38.1347 103.374 38.052C103.717 37.9693 104.074 37.9567 104.423 38.0151C104.766 38.0645 105.096 38.186 105.39 38.3719C105.683 38.5578 105.935 38.8038 106.128 39.0939C106.331 39.377 106.474 39.6997 106.546 40.0413C106.619 40.383 106.62 40.736 106.549 41.0781C106.409 41.7898 106.001 42.4197 105.411 42.8362C104.82 43.2526 104.092 43.4233 103.379 43.3126C103.039 43.2545 102.714 43.1292 102.423 42.9438C102.131 42.7584 101.879 42.5167 101.682 42.2327C101.484 41.9487 101.344 41.628 101.271 41.2893C101.197 40.9505 101.191 40.6005 101.253 40.2594C101.318 39.9011 101.455 39.56 101.656 39.2569C101.857 38.9538 102.118 38.6952 102.421 38.4967Z" fill="white"/>
<path d="M103.522 46.857C103.503 46.9066 103.503 46.9616 103.522 47.0112L103.838 47.7335C103.85 47.7593 103.867 47.7822 103.889 47.8005C103.91 47.8188 103.936 47.8321 103.963 47.8395C104.012 47.8588 104.067 47.8588 104.116 47.8395L109.01 45.6338C109.01 45.6338 109.01 45.6338 109.01 45.682L105.658 51.5959C105.653 51.6472 105.653 51.6987 105.658 51.75C105.649 51.7847 105.649 51.8213 105.658 51.856L106.003 52.6265C106.012 52.6524 106.027 52.6757 106.047 52.6942C106.067 52.7127 106.091 52.7259 106.118 52.7325C106.17 52.7516 106.228 52.7516 106.28 52.7325L112.745 49.8429C112.771 49.8326 112.795 49.8169 112.814 49.7968C112.834 49.7768 112.849 49.7529 112.859 49.7266C112.869 49.7003 112.873 49.6723 112.872 49.6442C112.87 49.6161 112.863 49.5887 112.85 49.5636L112.534 48.8508C112.525 48.827 112.51 48.8053 112.492 48.7871C112.474 48.7689 112.453 48.7546 112.429 48.7449C112.376 48.7258 112.319 48.7258 112.266 48.7449L107.478 50.9217L110.724 45.0655C110.754 45.0189 110.774 44.9664 110.782 44.9114C110.796 44.8676 110.796 44.8204 110.782 44.7766L110.437 43.9964C110.426 43.9727 110.41 43.9517 110.39 43.9351C110.371 43.9184 110.347 43.9064 110.322 43.9001C110.269 43.881 110.212 43.881 110.159 43.9001L103.695 46.7896C103.631 46.7908 103.57 46.8147 103.522 46.857Z" fill="white"/>
<path d="M106.511 53.9075C106.491 53.9571 106.491 54.0121 106.511 54.0616L106.692 54.8803C106.707 54.9329 106.741 54.9778 106.788 55.0055C106.812 55.0167 106.838 55.0226 106.865 55.0226C106.891 55.0226 106.917 55.0167 106.941 55.0055L112.132 53.8112C112.137 53.8269 112.137 53.8436 112.132 53.8593L110.169 56.4696C110.124 56.5209 110.105 56.5595 110.112 56.5852C110.112 56.5852 110.159 56.6526 110.217 56.6815L113.09 58.1744L107.909 59.3688C107.855 59.3789 107.806 59.41 107.775 59.4554C107.757 59.5053 107.757 59.5597 107.775 59.6096L107.966 60.4282C107.972 60.4562 107.983 60.4827 108 60.506C108.016 60.5292 108.037 60.5487 108.062 60.5631C108.086 60.5743 108.112 60.5801 108.139 60.5801C108.165 60.5801 108.191 60.5743 108.215 60.5631L115.111 58.9739C115.138 58.9682 115.163 58.9572 115.185 58.9413C115.208 58.9255 115.227 58.9053 115.241 58.8818C115.255 58.8584 115.265 58.8323 115.269 58.805C115.273 58.7778 115.271 58.75 115.264 58.7234L115.082 57.924C115.071 57.8799 115.048 57.8398 115.015 57.8084C114.979 57.772 114.937 57.7426 114.891 57.7217L111.749 56.1902C111.749 56.1902 111.749 56.1903 111.749 56.1421L113.904 53.4066C113.94 53.363 113.969 53.3143 113.99 53.2622C114.004 53.2183 114.004 53.1712 113.99 53.1273L113.799 52.2894C113.795 52.2633 113.785 52.2384 113.77 52.2167C113.755 52.195 113.735 52.177 113.713 52.1642C113.66 52.1458 113.602 52.1458 113.55 52.1642L106.654 53.763C106.618 53.7687 106.585 53.7858 106.559 53.8117C106.533 53.8377 106.516 53.8712 106.511 53.9075Z" fill="white"/>
<path d="M108.167 61.8824C108.132 61.9224 108.111 61.9735 108.109 62.0269L108.387 67.0836C108.388 67.111 108.394 67.1379 108.406 67.1627C108.417 67.1876 108.434 67.2098 108.454 67.228C108.472 67.2472 108.495 67.2616 108.52 67.27C108.545 67.2783 108.572 67.2805 108.598 67.2762H109.287C109.315 67.2774 109.342 67.2718 109.367 67.2601C109.392 67.2483 109.414 67.2308 109.431 67.2088C109.451 67.1886 109.466 67.1644 109.476 67.1379C109.486 67.1113 109.49 67.083 109.488 67.0547L109.278 63.2886C109.277 63.2317 109.297 63.1766 109.335 63.1345C109.352 63.1143 109.372 63.0979 109.395 63.0863C109.418 63.0747 109.443 63.0681 109.469 63.0671L111.193 62.9708C111.25 62.9695 111.305 62.9902 111.346 63.0286C111.386 63.0667 111.41 63.1182 111.413 63.173L111.557 65.8122C111.558 65.8396 111.564 65.8665 111.576 65.8913C111.587 65.9162 111.604 65.9384 111.624 65.9567C111.664 65.992 111.715 66.0125 111.768 66.0144H112.457C112.485 66.0136 112.511 66.0072 112.536 65.9956C112.561 65.984 112.583 65.9675 112.601 65.947C112.638 65.904 112.658 65.8495 112.659 65.7929L112.515 63.1538C112.512 63.1262 112.515 63.0982 112.523 63.0717C112.531 63.0452 112.545 63.0207 112.563 62.9997C112.578 62.9785 112.598 62.9613 112.622 62.9495C112.645 62.9378 112.671 62.9319 112.697 62.9323L114.344 62.8359C114.371 62.835 114.397 62.8396 114.422 62.8496C114.447 62.8595 114.469 62.8746 114.488 62.8937C114.528 62.9327 114.554 62.9832 114.564 63.0382L114.765 66.8139C114.766 66.8413 114.773 66.8682 114.784 66.893C114.796 66.9179 114.812 66.9401 114.833 66.9583C114.879 66.9771 114.93 66.9771 114.976 66.9583H115.666C115.693 66.9595 115.721 66.954 115.746 66.9422C115.771 66.9305 115.793 66.9129 115.809 66.8909C115.848 66.8489 115.868 66.7937 115.867 66.7368L115.589 61.6801C115.588 61.6555 115.581 61.6315 115.57 61.6098C115.558 61.5881 115.542 61.5694 115.522 61.5549C115.48 61.5166 115.425 61.4959 115.369 61.4971L108.31 61.8824C108.264 61.8646 108.213 61.8646 108.167 61.8824Z" fill="white"/>
<path d="M115.609 68.7696L108.58 67.9895C108.552 67.9852 108.524 67.9873 108.497 67.9956C108.471 68.004 108.447 68.0184 108.426 68.0376C108.387 68.0688 108.36 68.1132 108.35 68.1628L108.264 68.943C108.261 68.9714 108.264 69.0002 108.274 69.0269C108.284 69.0537 108.3 69.0777 108.321 69.0971C108.335 69.1201 108.355 69.1392 108.378 69.1527C108.402 69.1661 108.428 69.1735 108.455 69.1742L113.79 69.7425L107.938 73.1714L107.823 73.2773C107.815 73.309 107.815 73.342 107.823 73.3737L107.727 74.2116C107.716 74.2375 107.711 74.2654 107.711 74.2935C107.711 74.3216 107.716 74.3494 107.727 74.3754C107.766 74.4154 107.816 74.4423 107.871 74.4524L114.891 75.2326C114.919 75.2377 114.947 75.2359 114.974 75.2276C115 75.2192 115.024 75.2044 115.044 75.1844C115.067 75.1701 115.086 75.1503 115.099 75.1267C115.113 75.1032 115.12 75.0767 115.121 75.0496L115.207 74.2598C115.225 74.2133 115.225 74.1618 115.207 74.1153C115.168 74.0753 115.118 74.0483 115.063 74.0382L109.825 73.4892L115.571 70.0603C115.618 70.0324 115.66 69.9966 115.695 69.9544C115.728 69.9202 115.748 69.8762 115.753 69.8291L115.849 68.9815C115.85 68.9292 115.833 68.878 115.801 68.8371C115.748 68.7902 115.679 68.766 115.609 68.7696Z" fill="white"/>
<path d="M114.568 77.0241L113.898 76.8314C113.874 76.8202 113.847 76.8145 113.821 76.8145C113.794 76.8145 113.768 76.8202 113.744 76.8314C113.72 76.8427 113.698 76.8587 113.68 76.8786C113.662 76.8984 113.648 76.9217 113.639 76.947L113.064 78.989C113.057 79.0176 113.044 79.0444 113.026 79.0676C113.008 79.0908 112.985 79.11 112.959 79.1238C112.913 79.1426 112.861 79.1426 112.815 79.1238L107.069 77.4768C107.045 77.4656 107.019 77.4598 106.992 77.4598C106.966 77.4598 106.94 77.4656 106.916 77.4768C106.868 77.506 106.831 77.5499 106.811 77.602L106.581 78.4207C106.569 78.4463 106.562 78.4743 106.562 78.5026C106.562 78.5309 106.569 78.5588 106.581 78.5844C106.61 78.6303 106.654 78.6644 106.705 78.6808L112.451 80.3278C112.476 80.3353 112.499 80.3477 112.519 80.3642C112.538 80.3808 112.555 80.4011 112.566 80.4241C112.586 80.4737 112.586 80.5287 112.566 80.5782L111.982 82.6298C111.97 82.6554 111.964 82.6834 111.964 82.7117C111.964 82.74 111.97 82.7679 111.982 82.7935C112.011 82.8394 112.055 82.8735 112.107 82.8899L112.777 83.0825C112.823 83.1013 112.875 83.1013 112.921 83.0825C112.968 83.0528 113.005 83.009 113.026 82.9573L114.645 77.236C114.664 77.1831 114.664 77.1251 114.645 77.0722C114.623 77.05 114.597 77.0334 114.568 77.0241Z" fill="white"/>
<path d="M105.036 83.487C105.01 83.475 104.983 83.4688 104.955 83.4688C104.926 83.4688 104.899 83.475 104.873 83.487C104.849 83.4945 104.826 83.5069 104.806 83.5234C104.786 83.54 104.77 83.5603 104.758 83.5833L104.366 84.3635C104.354 84.3858 104.348 84.4106 104.348 84.4358C104.348 84.4609 104.354 84.4857 104.366 84.508C104.373 84.5354 104.386 84.5608 104.404 84.5824C104.422 84.6041 104.445 84.6214 104.471 84.6332L106.98 85.9239C107.004 85.9362 107.026 85.9539 107.042 85.9755C107.059 85.9972 107.07 86.0223 107.076 86.0491C107.088 86.073 107.094 86.0994 107.094 86.1261C107.094 86.1529 107.088 86.1792 107.076 86.2032L105.658 88.9964C105.639 89.0493 105.639 89.1073 105.658 89.1602C105.665 89.1854 105.677 89.2089 105.693 89.2289C105.71 89.249 105.731 89.2649 105.754 89.2757L106.367 89.5936C106.42 89.6127 106.477 89.6127 106.53 89.5936C106.583 89.5747 106.627 89.5371 106.654 89.4876L108.072 86.6944C108.091 86.6416 108.129 86.5972 108.177 86.5692C108.202 86.5565 108.23 86.5499 108.259 86.5499C108.287 86.5499 108.315 86.5565 108.34 86.5692L109.805 87.3205C109.831 87.3315 109.852 87.3488 109.869 87.3707C109.886 87.3926 109.897 87.4184 109.901 87.4457C109.913 87.4696 109.919 87.496 109.919 87.5227C109.919 87.5495 109.913 87.5759 109.901 87.5998L108.168 90.9324C108.149 90.9853 108.149 91.0432 108.168 91.0961C108.174 91.1214 108.186 91.1449 108.202 91.1649C108.219 91.185 108.24 91.2009 108.263 91.2117L108.876 91.5296C108.902 91.5416 108.93 91.5478 108.958 91.5478C108.986 91.5478 109.014 91.5416 109.039 91.5296C109.067 91.5236 109.093 91.5108 109.115 91.4923C109.136 91.4738 109.153 91.4503 109.164 91.4236L111.414 86.993C111.426 86.9691 111.432 86.9427 111.432 86.9159C111.432 86.8892 111.426 86.8628 111.414 86.8389C111.407 86.8115 111.394 86.7861 111.376 86.7644C111.357 86.7428 111.335 86.7255 111.309 86.7137L105.036 83.487Z" fill="white"/>
<path d="M102.202 88.8903C102.153 88.8699 102.097 88.8699 102.048 88.8903C102.024 88.8906 102 88.8969 101.978 88.9087C101.956 88.9204 101.938 88.9372 101.924 88.9577L101.416 89.6608C101.398 89.7071 101.398 89.7589 101.416 89.8053C101.426 89.8626 101.457 89.9142 101.502 89.9498L103.485 91.3849C103.53 91.4168 103.561 91.4652 103.571 91.5197C103.582 91.5439 103.588 91.5702 103.588 91.5968C103.588 91.6234 103.582 91.6497 103.571 91.6738L102.795 92.7622C102.768 92.7969 102.731 92.8235 102.69 92.8393H102.422L99.4626 92.5889C99.4121 92.5776 99.3598 92.5776 99.3093 92.5889C99.2713 92.6058 99.2383 92.6323 99.2135 92.6659L98.6293 93.4846C98.6112 93.5117 98.6016 93.5435 98.6016 93.5761C98.6016 93.6087 98.6112 93.6406 98.6293 93.6676C98.6494 93.6969 98.6768 93.7203 98.7088 93.7355C98.7407 93.7507 98.7761 93.7572 98.8113 93.7543L101.684 93.9662C101.721 93.965 101.758 93.9711 101.793 93.9843C101.827 93.9976 101.859 94.0176 101.886 94.0433C101.915 94.1275 101.915 94.2191 101.886 94.3033C101.796 94.743 101.826 95.1988 101.972 95.6229C102.135 96.014 102.408 96.3488 102.757 96.5861C102.998 96.7907 103.281 96.9391 103.586 97.0207C103.89 97.1023 104.209 97.115 104.519 97.058C105.183 96.8547 105.751 96.4168 106.119 95.8251L107.91 93.3305C107.921 93.3064 107.927 93.2801 107.927 93.2535C107.927 93.2268 107.921 93.2005 107.91 93.1764C107.9 93.1218 107.869 93.0734 107.823 93.0416L102.202 88.8903ZM106.387 93.7062L105.295 95.3243C105.207 95.4519 105.093 95.5597 104.961 95.6409C104.829 95.7221 104.682 95.775 104.529 95.7962C104.36 95.8207 104.188 95.8102 104.023 95.7655C103.859 95.7208 103.705 95.6427 103.571 95.5362C103.433 95.4444 103.315 95.3253 103.225 95.1862C103.134 95.0471 103.073 94.8909 103.044 94.7271C103.011 94.578 103.01 94.4233 103.041 94.2736C103.072 94.124 103.136 93.983 103.226 93.8603L104.366 92.271C104.395 92.2276 104.44 92.1967 104.491 92.1843C104.54 92.1667 104.594 92.1667 104.644 92.1843L106.339 93.4172C106.361 93.4311 106.38 93.4493 106.395 93.4709C106.41 93.4924 106.42 93.5167 106.425 93.5424C106.438 93.5732 106.441 93.6073 106.435 93.64C106.428 93.6727 106.411 93.7025 106.387 93.7254V93.7062Z" fill="white"/>
<path d="M98.0057 94.3608C97.9817 94.3496 97.9556 94.3438 97.9291 94.3438C97.9026 94.3438 97.8765 94.3496 97.8525 94.3608C97.8272 94.3593 97.8019 94.3637 97.7787 94.3737C97.7554 94.3838 97.7348 94.3991 97.7184 94.4186L97.1438 95.0446C97.1246 95.0649 97.1103 95.0894 97.102 95.1161C97.0937 95.1428 97.0916 95.1711 97.0959 95.1987C97.095 95.2255 97.0996 95.2522 97.1095 95.2771C97.1194 95.3019 97.1343 95.3245 97.1534 95.3432L102.363 100.159C102.406 100.196 102.46 100.216 102.517 100.217C102.544 100.216 102.571 100.21 102.595 100.198C102.62 100.186 102.642 100.17 102.66 100.15L103.235 99.5138C103.251 99.4957 103.264 99.4744 103.272 99.4513C103.281 99.4281 103.284 99.4035 103.283 99.3789C103.28 99.3209 103.256 99.2659 103.216 99.2248L98.0057 94.3608Z" fill="white"/>
<path d="M96.3032 96.2873C96.2864 96.2654 96.2645 96.2478 96.2395 96.2361C96.2145 96.2243 96.1871 96.2188 96.1595 96.2199C96.1335 96.2156 96.1068 96.2178 96.0818 96.2262C96.0568 96.2346 96.0342 96.249 96.0159 96.2681L92.2904 99.6681C92.2701 99.6864 92.2536 99.7086 92.2421 99.7334C92.2306 99.7583 92.2242 99.7852 92.2233 99.8126C92.2211 99.8387 92.2242 99.8649 92.2325 99.8898C92.2407 99.9146 92.2539 99.9375 92.2712 99.9571L92.7309 100.477C92.7502 100.499 92.7738 100.516 92.8002 100.528C92.8267 100.539 92.8553 100.545 92.8842 100.545C92.9111 100.55 92.9389 100.547 92.9644 100.537C92.9898 100.527 93.0119 100.509 93.0278 100.487L95.8148 97.9537C95.8307 97.9312 95.8527 97.9139 95.8782 97.9036C95.9036 97.8934 95.9315 97.8907 95.9584 97.8959C95.985 97.8949 96.0116 97.8996 96.0363 97.9095C96.061 97.9195 96.0834 97.9345 96.1021 97.9537L97.2609 99.2443C97.2727 99.2683 97.2789 99.2946 97.2789 99.3214C97.2789 99.3481 97.2727 99.3745 97.2609 99.3984C97.2618 99.4252 97.2572 99.4519 97.2473 99.4768C97.2374 99.5016 97.2225 99.5242 97.2034 99.5429L95.288 101.325C95.2677 101.343 95.2513 101.365 95.2398 101.39C95.2282 101.415 95.2218 101.442 95.221 101.469C95.2023 101.516 95.2023 101.567 95.221 101.614L95.6903 102.124C95.7071 102.146 95.7289 102.164 95.7539 102.176C95.7789 102.187 95.8063 102.193 95.8339 102.192C95.8579 102.203 95.8841 102.209 95.9105 102.209C95.937 102.209 95.9631 102.203 95.9871 102.192L97.9026 100.41C97.9444 100.371 97.9993 100.351 98.0558 100.352C98.081 100.351 98.1061 100.356 98.1292 100.366C98.1524 100.376 98.1731 100.391 98.1899 100.41L99.2913 101.633C99.3278 101.676 99.3482 101.731 99.3487 101.787C99.3426 101.841 99.3191 101.892 99.2817 101.932L96.5043 104.474C96.4825 104.491 96.465 104.513 96.4533 104.538C96.4416 104.564 96.4361 104.591 96.4373 104.619C96.4263 104.641 96.4206 104.666 96.4206 104.691C96.4206 104.716 96.4263 104.741 96.4373 104.763L96.897 105.274C96.9146 105.296 96.9365 105.314 96.9611 105.327C96.9858 105.34 97.0128 105.348 97.0406 105.351C97.0972 105.352 97.1521 105.331 97.1939 105.293L100.919 101.883C100.939 101.867 100.954 101.846 100.964 101.823C100.974 101.799 100.978 101.774 100.977 101.749C100.988 101.724 100.994 101.698 100.994 101.672C100.994 101.645 100.988 101.619 100.977 101.594L96.3032 96.2873Z" fill="white"/>
<path d="M91.6775 100.362C91.6499 100.315 91.6053 100.28 91.553 100.266C91.503 100.251 91.4499 100.251 91.3998 100.266L90.739 100.69C90.7154 100.704 90.6953 100.724 90.6804 100.747C90.6655 100.77 90.656 100.797 90.6528 100.824C90.641 100.848 90.6348 100.875 90.6348 100.901C90.6348 100.928 90.641 100.955 90.6528 100.978L93.5259 105.534L87.2242 103.049H87.0709C87.0365 103.039 87 103.039 86.9656 103.049L86.2569 103.492C86.233 103.509 86.213 103.53 86.1981 103.555C86.1832 103.58 86.1739 103.608 86.1707 103.637C86.1514 103.686 86.1514 103.741 86.1707 103.791L89.9249 109.811C89.9375 109.837 89.9563 109.859 89.9798 109.876C90.0032 109.893 90.0304 109.904 90.059 109.907C90.0823 109.921 90.1087 109.928 90.1356 109.928C90.1625 109.928 90.1889 109.921 90.2122 109.907L90.8731 109.493C90.8959 109.48 90.9156 109.462 90.9306 109.44C90.9455 109.419 90.9553 109.394 90.9592 109.368C90.9785 109.318 90.9785 109.263 90.9592 109.214L88.1436 104.735H88.1914L94.4166 107.124C94.4702 107.136 94.5258 107.136 94.5794 107.124C94.6197 107.138 94.6636 107.138 94.7039 107.124L95.4222 106.671C95.4451 106.658 95.4648 106.64 95.4797 106.618C95.4946 106.597 95.5044 106.572 95.5084 106.546C95.5267 106.496 95.5267 106.441 95.5084 106.392L91.6775 100.362Z" fill="white"/>
<path d="M85.0489 104.233C84.9997 104.214 84.945 104.214 84.8957 104.233L82.2332 105.273C81.7494 105.445 81.304 105.712 80.9227 106.057C80.5414 106.403 80.2317 106.82 80.0114 107.287C79.7972 107.736 79.6805 108.226 79.6689 108.724C79.6574 109.222 79.7512 109.717 79.9443 110.176C80.1148 110.653 80.3826 111.089 80.7307 111.456C81.0787 111.822 81.4992 112.111 81.9651 112.305C82.9258 112.699 84.002 112.699 84.9627 112.305L87.6252 111.255C87.6489 111.245 87.6704 111.231 87.6885 111.213C87.7066 111.194 87.7209 111.173 87.7305 111.149C87.7448 111.124 87.7523 111.096 87.7523 111.067C87.7523 111.038 87.7448 111.01 87.7305 110.985L85.183 104.349C85.1526 104.296 85.1053 104.255 85.0489 104.233ZM86.1503 110.581C86.1391 110.605 86.1232 110.627 86.1035 110.645C86.0837 110.663 86.0606 110.678 86.0354 110.687L84.5701 111.264C84.2516 111.405 83.9076 111.478 83.5597 111.478C83.2118 111.478 82.8677 111.405 82.5493 111.264C82.2301 111.122 81.9427 110.916 81.7042 110.66C81.4656 110.403 81.2808 110.101 81.1606 109.772C81.0255 109.447 80.9559 109.098 80.9559 108.746C80.9559 108.394 81.0255 108.045 81.1606 107.72C81.2979 107.398 81.4997 107.108 81.7535 106.867C82.0072 106.627 82.3075 106.442 82.6355 106.323L84.1008 105.745C84.1501 105.726 84.2048 105.726 84.254 105.745C84.3044 105.765 84.3455 105.803 84.3689 105.851L86.1503 110.446C86.1634 110.49 86.16 110.538 86.1407 110.581H86.1503Z" fill="white"/>
<path d="M77.6745 106.882C77.6282 106.865 77.5771 106.865 77.5308 106.882L73.0391 107.846C73.0117 107.849 72.9854 107.858 72.9622 107.873C72.9389 107.888 72.9194 107.909 72.905 107.932C72.8858 107.982 72.8858 108.037 72.905 108.086L73.0487 108.761C73.052 108.788 73.0614 108.815 73.0763 108.838C73.0913 108.861 73.1113 108.881 73.1349 108.896C73.1875 108.915 73.2451 108.915 73.2977 108.896L76.5348 108.202C76.5874 108.183 76.645 108.183 76.6976 108.202C76.7197 108.216 76.7387 108.234 76.7535 108.256C76.7683 108.277 76.7786 108.302 76.7838 108.327L78.0288 114.212C78.033 114.24 78.0439 114.265 78.0607 114.287C78.0774 114.309 78.0994 114.326 78.1246 114.337C78.1475 114.352 78.1741 114.36 78.2012 114.36C78.2283 114.36 78.2549 114.352 78.2778 114.337L79.1206 114.164C79.1678 114.15 79.2085 114.119 79.2355 114.077C79.2498 114.053 79.2574 114.024 79.2574 113.996C79.2574 113.967 79.2498 113.939 79.2355 113.914L77.7702 106.96C77.7458 106.926 77.7127 106.899 77.6745 106.882Z" fill="white"/>
<path d="M71.7745 111.005C71.7396 110.959 71.7136 110.907 71.6979 110.851C71.6897 110.784 71.6897 110.716 71.6979 110.649L71.468 108.193C71.4671 108.165 71.4608 108.138 71.4492 108.114C71.4377 108.089 71.4213 108.066 71.401 108.048C71.3544 108.032 71.3039 108.032 71.2573 108.048L70.4145 108.135C70.3858 108.133 70.3571 108.139 70.3317 108.153C70.3063 108.166 70.2852 108.187 70.2709 108.212C70.2605 108.235 70.2552 108.259 70.2552 108.284C70.2552 108.309 70.2605 108.334 70.2709 108.356L70.5007 110.822C70.5043 110.893 70.5043 110.964 70.5007 111.034C70.4857 111.09 70.4665 111.145 70.4432 111.198L68.2405 115.551C68.2237 115.581 68.2148 115.614 68.2148 115.648C68.2148 115.682 68.2237 115.715 68.2405 115.744C68.2544 115.772 68.2769 115.794 68.3045 115.808C68.3321 115.822 68.3634 115.827 68.3937 115.821L69.2365 115.744C69.2806 115.755 69.3266 115.755 69.3706 115.744C69.3706 115.744 69.4281 115.686 69.4664 115.619L71.1615 112.209L73.3834 115.185C73.4271 115.25 73.4823 115.305 73.5462 115.349C73.6033 115.359 73.6616 115.359 73.7186 115.349L74.5806 115.272C74.6112 115.271 74.6408 115.26 74.6649 115.241C74.6891 115.222 74.7065 115.196 74.7147 115.166C74.7284 115.136 74.7356 115.103 74.7356 115.07C74.7356 115.037 74.7284 115.004 74.7147 114.974L71.7745 111.005Z" fill="white"/>
<path d="M55.6686 106.806L54.8833 106.517C54.8578 106.505 54.83 106.498 54.8019 106.498C54.7737 106.498 54.7459 106.505 54.7205 106.517C54.6735 106.542 54.6364 106.583 54.6151 106.632L52.7763 111.699C52.7763 111.699 52.7763 111.699 52.7763 111.65L51.6749 108.568C51.6679 108.523 51.6439 108.481 51.6079 108.453C51.5868 108.443 51.564 108.438 51.5408 108.438C51.5177 108.438 51.4949 108.443 51.4738 108.453L48.6007 110.08L50.4395 105.062C50.4514 105.037 50.4576 105.009 50.4576 104.98C50.4576 104.952 50.4514 104.924 50.4395 104.899C50.4298 104.875 50.4156 104.853 50.3975 104.835C50.3794 104.817 50.3578 104.802 50.3341 104.793L49.5488 104.504C49.5233 104.492 49.4955 104.485 49.4674 104.485C49.4393 104.485 49.4115 104.492 49.386 104.504C49.3617 104.515 49.3398 104.531 49.3217 104.551C49.3036 104.571 49.2897 104.594 49.2806 104.619L46.8385 111.294C46.8195 111.347 46.8195 111.405 46.8385 111.458C46.8657 111.507 46.91 111.545 46.963 111.564L47.7291 111.843C47.7694 111.858 47.8134 111.858 47.8537 111.843L47.9973 111.785L50.9854 109.974C50.9854 109.974 50.9854 109.974 51.0428 109.974C51.0428 109.974 51.1003 109.974 51.0428 109.974L52.1346 113.288C52.1524 113.343 52.1782 113.395 52.2113 113.442C52.2395 113.476 52.2757 113.502 52.3166 113.519L53.1211 113.818C53.1703 113.837 53.225 113.837 53.2743 113.818C53.3228 113.794 53.3605 113.753 53.3797 113.702L55.8218 107.027C55.8408 106.974 55.8408 106.916 55.8218 106.863C55.7791 106.827 55.7248 106.806 55.6686 106.806Z" fill="white"/>
<path d="M48.1969 103.81C48.1793 103.761 48.1455 103.721 48.1011 103.694L47.3445 103.3C47.319 103.287 47.2912 103.281 47.2631 103.281C47.235 103.281 47.2072 103.287 47.1817 103.3C47.1338 103.318 47.0933 103.352 47.0668 103.396L43.7914 109.705C43.7796 109.729 43.7734 109.755 43.7734 109.782C43.7734 109.808 43.7796 109.835 43.7914 109.859C43.8101 109.912 43.8476 109.957 43.8967 109.984L44.6533 110.379C44.6755 110.391 44.7001 110.397 44.7252 110.397C44.7502 110.397 44.7749 110.391 44.797 110.379C44.8242 110.372 44.8495 110.358 44.871 110.34C44.8925 110.322 44.9098 110.299 44.9215 110.273L48.1969 103.974C48.2088 103.948 48.215 103.92 48.215 103.892C48.215 103.864 48.2088 103.836 48.1969 103.81Z" fill="white"/>
<path d="M45.916 102.712C45.9079 102.661 45.8804 102.616 45.8394 102.586L45.1881 102.134C45.1389 102.114 45.0842 102.114 45.0349 102.134C45.0075 102.137 44.9811 102.147 44.9579 102.162C44.9347 102.177 44.9152 102.197 44.9008 102.22L41.8744 106.67L41.6637 99.8606C41.6673 99.8126 41.6673 99.7643 41.6637 99.7162C41.6494 99.6819 41.6262 99.652 41.5967 99.6295L40.9072 99.1479C40.8824 99.1335 40.8543 99.126 40.8257 99.126C40.7972 99.126 40.7691 99.1335 40.7443 99.1479C40.6943 99.156 40.6496 99.1837 40.6198 99.2249L36.5208 104.956C36.5097 104.98 36.5039 105.006 36.5039 105.033C36.5039 105.06 36.5097 105.086 36.5208 105.11C36.5241 105.138 36.5335 105.164 36.5485 105.187C36.5634 105.211 36.5834 105.23 36.607 105.245L37.2487 105.698C37.298 105.717 37.3527 105.717 37.4019 105.698C37.4562 105.687 37.5043 105.656 37.536 105.611L40.5049 101.238C40.5049 101.238 40.5049 101.238 40.5049 101.286L40.7731 107.98C40.7731 108.048 40.7731 108.096 40.7731 108.144C40.7905 108.187 40.8206 108.224 40.8593 108.25L41.5584 108.732C41.5811 108.741 41.6055 108.746 41.6302 108.746C41.6549 108.746 41.6794 108.741 41.7021 108.732C41.7295 108.728 41.7558 108.719 41.779 108.704C41.8023 108.689 41.8218 108.669 41.8361 108.645L45.8681 102.808C45.8924 102.781 45.909 102.748 45.916 102.712Z" fill="white"/>
<path d="M39.7306 98.0882C39.7321 98.0628 39.7277 98.0373 39.7178 98.0139C39.7078 97.9905 39.6925 97.9698 39.6732 97.9533L39.0411 97.3851C38.9959 97.3461 38.9378 97.3255 38.8783 97.3273C38.8266 97.3315 38.7786 97.3557 38.7442 97.3947L34.0227 102.702C34.0037 102.72 33.9894 102.743 33.981 102.768C33.9727 102.793 33.9705 102.82 33.9748 102.846C33.9756 102.874 33.982 102.901 33.9935 102.925C34.0051 102.95 34.0215 102.973 34.0418 102.991L34.6739 103.559C34.6922 103.578 34.7148 103.593 34.7398 103.601C34.7649 103.609 34.7915 103.611 34.8176 103.607C34.8451 103.608 34.8726 103.603 34.8976 103.591C34.9226 103.579 34.9444 103.562 34.9612 103.54L39.6732 98.2423C39.7097 98.1993 39.7301 98.1447 39.7306 98.0882Z" fill="white"/>
<path d="M37.7968 96.5093C37.799 96.4833 37.7958 96.457 37.7876 96.4321C37.7794 96.4073 37.7662 96.3844 37.7489 96.3648L37.2125 95.7195C37.1929 95.6984 37.1692 95.6815 37.1429 95.6699C37.1165 95.6583 37.0881 95.6522 37.0593 95.6521C37.0334 95.6499 37.0072 95.653 36.9825 95.6613C36.9578 95.6696 36.9351 95.6829 36.9157 95.7003L32.8645 99.1677V99.1774L33.4104 95.9411C33.4104 95.8833 33.4104 95.8351 33.4104 95.8159C33.4104 95.7966 33.353 95.8159 33.2763 95.8159H30.0201H29.9626L34.0138 92.3484C34.0354 92.3306 34.0534 92.3087 34.0665 92.2839C34.0797 92.2591 34.0878 92.2319 34.0904 92.2039C34.0926 92.1778 34.0895 92.1515 34.0813 92.1267C34.073 92.1019 34.0598 92.079 34.0425 92.0594L33.5062 91.4238C33.4871 91.4013 33.4636 91.3828 33.4373 91.3696C33.411 91.3564 33.3823 91.3486 33.353 91.3467C33.3012 91.3467 33.2507 91.3636 33.2093 91.3949L27.827 96.0085C27.8053 96.0262 27.7874 96.0482 27.7742 96.073C27.7611 96.0978 27.7529 96.125 27.7503 96.1529C27.7474 96.2084 27.7644 96.2631 27.7982 96.3071L28.325 96.9332C28.3573 96.9647 28.3967 96.9878 28.4399 97.0006C28.4905 97.0107 28.5425 97.0107 28.5931 97.0006L32.0792 96.8946C32.0792 96.8946 32.0792 96.8946 32.1367 96.8946V96.9428L31.4758 100.362C31.4716 100.42 31.4716 100.478 31.4758 100.535C31.485 100.581 31.5047 100.624 31.5333 100.661L32.0888 101.316C32.1051 101.336 32.1255 101.352 32.1486 101.364C32.1717 101.375 32.197 101.382 32.2229 101.383C32.2504 101.387 32.2785 101.385 32.305 101.377C32.3316 101.369 32.3559 101.354 32.3761 101.335L37.7584 96.7213C37.7831 96.6926 37.7996 96.6578 37.8064 96.6205C37.8131 96.5833 37.8098 96.5449 37.7968 96.5093Z" fill="white"/>
<path d="M32.9675 90.8453C32.9818 90.8204 32.9893 90.7922 32.9893 90.7634C32.9893 90.7347 32.9818 90.7064 32.9675 90.6815L32.594 90.0458C32.5518 89.9693 32.4928 89.9035 32.4216 89.8532C32.3975 89.834 32.3699 89.8198 32.3402 89.8115C32.3106 89.8033 32.2797 89.801 32.2492 89.805L30.8797 89.988C30.8396 90.0036 30.7952 90.0036 30.7552 89.988C30.7167 89.9674 30.6838 89.9376 30.6594 89.9013L28.9834 87.0118C28.9703 86.9744 28.9703 86.9336 28.9834 86.8962C28.9737 86.8583 28.9737 86.8186 28.9834 86.7806L29.807 85.6441C29.8396 85.5979 29.8624 85.5454 29.8741 85.49C29.8833 85.4721 29.8881 85.4523 29.8881 85.4322C29.8881 85.4121 29.8833 85.3923 29.8741 85.3744L29.4048 84.5653C29.3918 84.5384 29.3713 84.5159 29.3458 84.5005C29.3203 84.4851 29.2909 84.4775 29.2611 84.4786C29.2291 84.479 29.1976 84.4871 29.1693 84.5021C29.141 84.5172 29.1166 84.5389 29.0983 84.5653L24.5492 90.7489C24.5104 90.7925 24.484 90.8457 24.4726 90.9031C24.4571 90.9433 24.4571 90.988 24.4726 91.0283L24.8652 91.7025C24.8944 91.7656 24.941 91.8191 24.9993 91.8566C25.0557 91.8727 25.1153 91.8727 25.1717 91.8566L32.8334 90.8934C32.8816 90.8898 32.9279 90.8732 32.9675 90.8453ZM29.5389 90.171L26.1773 90.6141L28.2172 87.8979C28.2172 87.8979 28.2172 87.8979 28.2843 87.8498C28.2962 87.8438 28.3093 87.8407 28.3226 87.8407C28.3359 87.8407 28.349 87.8438 28.3609 87.8498L29.6346 90.0266C29.6415 90.0417 29.6451 90.0581 29.6451 90.0747C29.6451 90.0913 29.6415 90.1078 29.6346 90.1229C29.6281 90.1419 29.6144 90.1576 29.5965 90.1666C29.5786 90.1756 29.5579 90.1772 29.5389 90.171Z" fill="white"/>
<path d="M29.1366 83.9198C29.1559 83.8703 29.1559 83.8153 29.1366 83.7657L27.4606 79.4699C27.4351 79.4204 27.395 79.38 27.3457 79.3544C27.2964 79.335 27.2417 79.335 27.1925 79.3544L26.5508 79.6048C26.5244 79.6144 26.5004 79.6297 26.4806 79.6497C26.4607 79.6697 26.4454 79.6938 26.4359 79.7203C26.4216 79.7452 26.4141 79.7735 26.4141 79.8022C26.4141 79.831 26.4216 79.8592 26.4359 79.8841L27.6522 82.9855C27.664 83.0095 27.6701 83.0358 27.6701 83.0626C27.6701 83.0893 27.664 83.1157 27.6522 83.1396C27.6442 83.1656 27.6307 83.1894 27.6124 83.2093C27.5942 83.2293 27.5718 83.245 27.5468 83.2552L21.9729 85.4609C21.924 85.4824 21.8835 85.5196 21.858 85.5669C21.839 85.6198 21.839 85.6777 21.858 85.7306L22.1741 86.53C22.1837 86.5539 22.198 86.5755 22.2161 86.5937C22.2342 86.6119 22.2557 86.6263 22.2794 86.636C22.3049 86.648 22.3327 86.6543 22.3608 86.6543C22.389 86.6543 22.4167 86.648 22.4422 86.636L29.0217 84.0258C29.0716 84.0057 29.1124 83.968 29.1366 83.9198Z" fill="white"/>
<path d="M27.1838 78.5357C27.1956 78.5118 27.2018 78.4854 27.2018 78.4586C27.2018 78.4319 27.1956 78.4055 27.1838 78.3816L26.954 77.5629C26.948 77.5349 26.9353 77.5088 26.9169 77.487C26.8986 77.4651 26.8751 77.4482 26.8486 77.4377C26.7992 77.4192 26.7448 77.4192 26.6954 77.4377L19.8956 79.364C19.8433 79.3788 19.7987 79.4133 19.7711 79.4603C19.7598 79.4861 19.7539 79.514 19.7539 79.5422C19.7539 79.5704 19.7598 79.5983 19.7711 79.6241L20.001 80.4428C20.0079 80.4678 20.02 80.491 20.0365 80.5109C20.053 80.5309 20.0735 80.547 20.0967 80.5584C20.1206 80.5703 20.1468 80.5764 20.1734 80.5764C20.1999 80.5764 20.2262 80.5703 20.25 80.5584L27.0593 78.632C27.0859 78.6263 27.1109 78.6147 27.1324 78.598C27.154 78.5814 27.1715 78.5601 27.1838 78.5357Z" fill="white"/>
<path d="M21.3501 77.5344C21.596 77.5026 21.831 77.4128 22.0357 77.2721C22.2404 77.1315 22.4092 76.9441 22.5281 76.7253C22.8182 76.0257 22.9301 75.2642 22.8537 74.51C22.7988 73.9162 22.8607 73.3173 23.0357 72.7474C23.0897 72.6021 23.1812 72.4738 23.3006 72.3757C23.4201 72.2775 23.5633 72.213 23.7157 72.1888C23.8796 72.1609 24.048 72.1764 24.2041 72.2339C24.3603 72.2913 24.4989 72.3886 24.6063 72.5162C24.8851 72.8577 25.0612 73.272 25.1139 73.7106C25.1957 74.1354 25.1626 74.5744 25.0182 74.982C24.8926 75.3254 24.6382 75.6055 24.3094 75.7622C24.265 75.7771 24.2275 75.808 24.2041 75.8488C24.1889 75.9024 24.1889 75.9591 24.2041 76.0126L24.3478 76.8602C24.3477 76.8887 24.3547 76.9169 24.368 76.9421C24.3814 76.9673 24.4008 76.9888 24.4244 77.0047C24.4479 77.0173 24.4743 77.0239 24.501 77.0239C24.5277 77.0239 24.554 77.0173 24.5776 77.0047C24.888 76.9165 25.1755 76.7613 25.4203 76.5501C25.6651 76.3389 25.8612 76.0766 25.995 75.7814C26.2935 75.1004 26.3706 74.342 26.2153 73.6143C26.1279 72.8207 25.7926 72.0755 25.2576 71.4856C25.0242 71.2482 24.7353 71.0736 24.4174 70.9776C24.0995 70.8817 23.7627 70.8676 23.4379 70.9366C23.1681 70.971 22.9099 71.0682 22.6838 71.2203C22.4578 71.3724 22.27 71.5754 22.1354 71.8131C21.814 72.5452 21.6791 73.3463 21.7428 74.144C21.7809 74.6914 21.7291 75.2413 21.5895 75.7718C21.5493 75.9042 21.4734 76.0229 21.3703 76.1147C21.2672 76.2064 21.1409 76.2678 21.0053 76.2919C20.8608 76.3172 20.7121 76.3008 20.5765 76.2445C20.4409 76.1883 20.3239 76.0945 20.2392 75.9741C19.9936 75.6373 19.8385 75.2425 19.789 74.8279C19.7082 74.4294 19.738 74.0162 19.8752 73.6335C19.9995 73.2909 20.245 73.0062 20.5648 72.8341C20.6113 72.809 20.6508 72.7726 20.6797 72.7281C20.6951 72.6812 20.6951 72.6306 20.6797 72.5837L20.5361 71.6975C20.5339 71.6721 20.5258 71.6475 20.5125 71.6258C20.4992 71.604 20.481 71.5857 20.4594 71.5723C20.4356 71.5604 20.4094 71.5543 20.3828 71.5543C20.3562 71.5543 20.33 71.5604 20.3062 71.5723C20.0029 71.6707 19.723 71.8311 19.4841 72.0432C19.2451 72.2553 19.0523 72.5147 18.9175 72.8052C18.6228 73.4701 18.5425 74.2111 18.6877 74.9242C18.7791 75.6911 19.1151 76.4075 19.6454 76.9661C19.8617 77.1938 20.1302 77.3646 20.4274 77.4637C20.7246 77.5627 21.0414 77.587 21.3501 77.5344Z" fill="white"/>
<path d="M19.1004 70.5707C19.1194 70.5519 19.1343 70.5294 19.1442 70.5045C19.1541 70.4797 19.1588 70.453 19.1578 70.4262V68.3072C19.1559 68.278 19.161 68.2488 19.1727 68.2219C19.1844 68.1951 19.2022 68.1715 19.2249 68.1531C19.2603 68.1156 19.3078 68.0917 19.3589 68.0857L25.3351 67.9894C25.3896 67.9856 25.4408 67.9615 25.4787 67.9219C25.4991 67.9037 25.5155 67.8814 25.527 67.8566C25.5385 67.8318 25.5449 67.8048 25.5458 67.7775V66.9202C25.5469 66.8925 25.5414 66.8649 25.5297 66.8398C25.5181 66.8146 25.5006 66.7927 25.4787 66.7757C25.4605 66.7561 25.4381 66.7407 25.4133 66.7307C25.3885 66.7207 25.3618 66.7164 25.3351 66.7179L19.3589 66.8143C19.3322 66.8158 19.3055 66.8115 19.2807 66.8015C19.2559 66.7915 19.2335 66.7761 19.2153 66.7565C19.1802 66.7192 19.1569 66.6723 19.1482 66.6216V64.4834C19.1474 64.456 19.141 64.4291 19.1295 64.4042C19.118 64.3794 19.1015 64.3571 19.0812 64.3389C19.0631 64.3184 19.041 64.3019 19.0163 64.2904C18.9916 64.2788 18.9648 64.2723 18.9375 64.2715H18.2384C18.1879 64.2722 18.1397 64.293 18.1043 64.3293C18.0678 64.3723 18.0474 64.4268 18.0469 64.4834L18.1426 70.4262C18.145 70.4842 18.1689 70.5392 18.2097 70.5803C18.245 70.6166 18.2932 70.6374 18.3438 70.6381H19.0429C19.0666 70.62 19.0862 70.597 19.1004 70.5707Z" fill="white"/>
<path d="M23.5538 59.4068C23.8751 59.1232 24.0712 58.7229 24.0991 58.2939C24.1269 57.8649 23.9841 57.4424 23.7022 57.1192C23.4203 56.7961 23.0222 56.5988 22.5957 56.5708C22.1691 56.5428 21.7489 56.6864 21.4276 56.9699C21.1063 57.2535 20.9102 57.6538 20.8823 58.0828C20.8545 58.5118 20.9972 58.9343 21.2792 59.2575C21.5611 59.5806 21.9592 59.7779 22.3857 59.8059C22.8123 59.8339 23.2324 59.6903 23.5538 59.4068Z" fill="white"/>
<path d="M68.7308 20.1194C68.5206 19.8791 68.2441 19.7069 67.9365 19.6247C67.6289 19.5424 67.304 19.5537 67.0028 19.6572C66.7016 19.7607 66.4377 19.9518 66.2445 20.2061C66.0512 20.4605 65.9374 20.7668 65.9173 21.0862C65.8972 21.4057 65.9717 21.724 66.1315 22.0008C66.2913 22.2777 66.5292 22.5006 66.815 22.6415C67.1008 22.7824 67.4217 22.8348 67.7372 22.7922C68.0526 22.7496 68.3484 22.6138 68.5872 22.4021C68.907 22.1185 69.1018 21.7187 69.1288 21.2907C69.1557 20.8626 69.0126 20.4414 68.7308 20.1194Z" fill="white"/>
<path d="M61.0409 110.889C60.7233 111.174 60.5301 111.573 60.5032 112.001C60.4763 112.428 60.6179 112.848 60.8973 113.172C61.1832 113.478 61.5767 113.661 61.9943 113.681C62.4119 113.701 62.8209 113.557 63.1347 113.279C63.4484 113.001 63.6422 112.611 63.6751 112.192C63.7079 111.773 63.5772 111.357 63.3107 111.033C63.0273 110.714 62.6301 110.52 62.2053 110.493C61.7804 110.465 61.3621 110.608 61.0409 110.889Z" fill="white"/>
<path d="M67.1077 52C56.1879 52 50.8008 58.2032 50.8008 66.868C50.8008 75.5329 56.1879 81.7361 67.1077 81.7361C78.0275 81.7361 83.4145 75.5329 83.4145 66.868C83.4145 58.2032 78.0275 52 67.1077 52ZM67.1077 77.7975C59.4881 77.7975 54.6834 74.2528 54.6834 66.868C54.6834 59.4832 59.4881 55.9386 67.1077 55.9386C74.6787 55.9386 79.532 59.4832 79.532 66.868C79.532 74.2528 74.6787 77.7975 67.1077 77.7975ZM75.3096 65.1449C75.3096 62.2402 73.3198 60.3694 70.4079 60.3694L60.2646 60.3694L60.2646 73.4159L63.5648 73.4159L63.5648 69.9204L68.9034 69.9204L70.9903 73.4159L74.9214 73.4159L72.5433 69.5266C74.2419 68.8373 75.3096 67.2619 75.3096 65.1449ZM63.5648 63.1756L69.4857 63.1756C70.4564 63.1756 72.0094 63.1756 72.0094 65.1449C72.0094 67.1142 70.4564 67.1142 69.4857 67.1142L63.5648 67.1142L63.5648 63.1756Z" fill="#FFB800"/>
</g>
<defs>
<clipPath id="clip0_2497_765">
<rect width="97.84" height="97.84" fill="white" transform="translate(18 18)"/>
</clipPath>
</defs>
</svg>
