<svg width="24" height="24" viewBox="0 0 24 24" fill="none" xmlns="http://www.w3.org/2000/svg">
<g clip-path="url(#clip0_2560_742)">
<path d="M12 19.875C13.7456 19.8749 15.4418 19.2951 16.8221 18.2265C18.2025 17.158 19.1889 15.6613 19.6265 13.9714M12 19.875C10.2544 19.8749 8.55822 19.2951 7.17785 18.2265C5.79748 17.158 4.81107 15.6613 4.3735 13.9714M12 19.875C14.1744 19.875 15.9375 16.3488 15.9375 12C15.9375 7.65125 14.1744 4.125 12 4.125M12 19.875C9.82562 19.875 8.0625 16.3488 8.0625 12C8.0625 7.65125 9.82562 4.125 12 4.125M12 4.125C13.3967 4.12442 14.7684 4.49544 15.9744 5.19999C17.1804 5.90455 18.1772 6.91727 18.8626 8.13425M12 4.125C10.6033 4.12442 9.23157 4.49544 8.02558 5.19999C6.8196 5.90455 5.82277 6.91727 5.13738 8.13425M18.8626 8.13425C16.9575 9.78444 14.5205 10.6911 12 10.6875C9.37675 10.6875 6.9775 9.725 5.13738 8.13425M18.8626 8.13425C19.5284 9.31374 19.8772 10.6456 19.875 12C19.875 12.6808 19.7884 13.3414 19.6265 13.9714M19.6265 13.9714C17.293 15.265 14.668 15.9417 12 15.9375C9.23325 15.9375 6.63363 15.2244 4.3735 13.9714M4.3735 13.9714C4.20791 13.3274 4.12441 12.665 4.125 12C4.125 10.5956 4.4925 9.27613 5.13738 8.13425" stroke="#C3C3C3" stroke-width="1.5" stroke-linecap="round" stroke-linejoin="round"/>
</g>
<defs>
<clipPath id="clip0_2560_742">
<rect width="18" height="18" fill="white" transform="translate(3 3)"/>
</clipPath>
</defs>
</svg>
