<svg width="217" height="125" viewBox="0 0 217 125" fill="none" xmlns="http://www.w3.org/2000/svg">
<rect x="0.75" y="0.75" width="215.5" height="123.5" rx="61.75" fill="#FFB800" stroke="#FFB800" stroke-width="1.5"/>
<rect x="8.75" y="8.75" width="199.5" height="107.5" rx="53.75" stroke="white" stroke-width="1.5"/>
<rect x="8.75" y="8.75" width="155.5" height="107.5" rx="53.75" stroke="white" stroke-width="1.5"/>
<path fill-rule="evenodd" clip-rule="evenodd" d="M50.1982 28L46 32.1982L59.8916 46.0898L49.0842 46.0974L49.0801 52L69.9853 51.9853L70 31.0801L64.0974 31.0842L64.0898 41.8916L50.1982 28ZM50.4411 50.6389L50.4434 47.4566L63.1729 47.4476L47.9235 32.1982L50.1982 29.9235L50.1982 29.9235L47.9235 32.1982L63.1729 47.4476L50.4434 47.4566L50.4412 50.639L50.4411 50.6389ZM68.6389 32.4411L65.4566 32.4434L65.4476 45.1728L65.4477 45.1729L65.4566 32.4434L68.6389 32.4411Z" fill="#2639E2"/>
<path d="M52.336 72.464C53.1893 72.464 53.9413 72.2347 54.592 71.776C55.2427 71.3067 55.696 70.6827 55.952 69.904H52.64C52.5547 69.904 52.48 69.8773 52.416 69.824C52.3627 69.76 52.336 69.6907 52.336 69.616V68.704C52.336 68.6187 52.368 68.5493 52.432 68.496C52.496 68.432 52.5653 68.4 52.64 68.4H57.648C57.7867 68.4 57.8827 68.4267 57.936 68.48C57.9893 68.5227 58.016 68.5973 58.016 68.704C57.9627 70.272 57.3973 71.568 56.32 72.592C55.2533 73.616 53.92 74.128 52.32 74.128C50.7093 74.128 49.36 73.6 48.272 72.544C47.1947 71.488 46.656 70.1707 46.656 68.592C46.656 67.0133 47.2 65.6853 48.288 64.608C49.3867 63.5307 50.7307 62.992 52.32 62.992C53.3973 62.992 54.384 63.2533 55.28 63.776C56.176 64.2987 56.864 65.008 57.344 65.904C57.408 66.0427 57.4133 66.1653 57.36 66.272C57.3173 66.368 57.2213 66.416 57.072 66.416H55.824C55.7067 66.416 55.6107 66.3947 55.536 66.352C55.4613 66.3093 55.3813 66.2347 55.296 66.128C54.944 65.6587 54.5067 65.296 53.984 65.04C53.472 64.7733 52.9227 64.64 52.336 64.64C51.2693 64.64 50.368 65.0187 49.632 65.776C48.9067 66.5333 48.544 67.4613 48.544 68.56C48.544 69.6587 48.9067 70.5867 49.632 71.344C50.368 72.0907 51.2693 72.464 52.336 72.464ZM65.1043 71.696C65.1789 71.6 65.2536 71.5307 65.3283 71.488C65.4136 71.4453 65.5096 71.424 65.6163 71.424H66.7362C66.8749 71.424 66.9656 71.4613 67.0083 71.536C67.0616 71.6107 67.0563 71.7173 66.9923 71.856C66.6829 72.5493 66.1869 73.104 65.5043 73.52C64.8323 73.9253 64.0696 74.128 63.2163 74.128C62.0109 74.128 61.0243 73.7493 60.2563 72.992C59.4989 72.224 59.1203 71.2373 59.1203 70.032C59.1203 68.8373 59.5096 67.8507 60.2883 67.072C61.0669 66.2933 62.0536 65.904 63.2483 65.904C64.4323 65.904 65.4083 66.2933 66.1763 67.072C66.9443 67.84 67.3283 68.8267 67.3283 70.032C67.3283 70.1813 67.2963 70.2987 67.2323 70.384C67.1683 70.4587 67.0776 70.496 66.9603 70.496H60.9443C60.9976 71.1253 61.2323 71.632 61.6483 72.016C62.0749 72.3893 62.6029 72.576 63.2323 72.576C63.6163 72.576 63.9736 72.5013 64.3043 72.352C64.6349 72.192 64.9016 71.9733 65.1043 71.696ZM63.2323 67.456C62.6456 67.456 62.1389 67.632 61.7123 67.984C61.2963 68.3253 61.0456 68.7733 60.9603 69.328H65.4563C65.3603 68.7627 65.1096 68.3093 64.7043 67.968C64.2989 67.6267 63.8083 67.456 63.2323 67.456ZM72.2609 74H71.4929C70.6715 74 70.0742 73.8187 69.7009 73.456C69.3275 73.0827 69.1409 72.496 69.1409 71.696V67.584H68.2449C68.1595 67.584 68.0849 67.5573 68.0209 67.504C67.9675 67.44 67.9409 67.3707 67.9409 67.296V66.368C67.9409 66.2827 67.9729 66.2133 68.0369 66.16C68.1009 66.096 68.1702 66.064 68.2449 66.064H69.1409V64.384C69.1409 64.2987 69.1675 64.2293 69.2209 64.176C69.2849 64.112 69.3542 64.08 69.4289 64.08H70.5809C70.6662 64.08 70.7355 64.112 70.7889 64.176C70.8529 64.2293 70.8849 64.2987 70.8849 64.384V66.064H72.2449C72.3302 66.064 72.3995 66.096 72.4529 66.16C72.5169 66.2133 72.5489 66.2827 72.5489 66.368V67.296C72.5489 67.3707 72.5169 67.44 72.4529 67.504C72.3995 67.5573 72.3302 67.584 72.2449 67.584H70.8849V71.408C70.8849 71.792 70.9649 72.064 71.1249 72.224C71.2849 72.384 71.5515 72.464 71.9249 72.464H72.2609C72.3462 72.464 72.4155 72.496 72.4689 72.56C72.5329 72.6133 72.5649 72.6827 72.5649 72.768V73.712C72.5649 73.7867 72.5329 73.856 72.4689 73.92C72.4155 73.9733 72.3462 74 72.2609 74ZM78.4578 64.032C78.4578 64.32 78.3511 64.5707 78.1378 64.784C77.9351 64.9867 77.6951 65.088 77.4178 65.088C77.1404 65.088 76.8951 64.9867 76.6818 64.784C76.4791 64.5707 76.3778 64.32 76.3778 64.032C76.3778 63.7547 76.4791 63.5147 76.6818 63.312C76.8951 63.0987 77.1404 62.992 77.4178 62.992C77.6951 62.992 77.9351 63.0987 78.1378 63.312C78.3511 63.5147 78.4578 63.7547 78.4578 64.032ZM77.9778 74H76.8258C76.7511 74 76.6818 73.9733 76.6178 73.92C76.5644 73.856 76.5378 73.7813 76.5378 73.696V66.368C76.5378 66.2827 76.5644 66.2133 76.6178 66.16C76.6818 66.096 76.7511 66.064 76.8258 66.064H77.9778C78.0631 66.064 78.1324 66.096 78.1858 66.16C78.2498 66.2133 78.2818 66.2827 78.2818 66.368V73.696C78.2818 73.7707 78.2498 73.84 78.1858 73.904C78.1324 73.968 78.0631 74 77.9778 74ZM86.5464 74H85.3944C85.3197 74 85.2504 73.9733 85.1864 73.92C85.133 73.856 85.1064 73.7813 85.1064 73.696V68.944C85.1064 68.496 84.9624 68.144 84.6744 67.888C84.397 67.6213 84.0237 67.488 83.5544 67.488C83.0744 67.488 82.6744 67.6267 82.3544 67.904C82.045 68.1707 81.8904 68.512 81.8904 68.928V73.696C81.8904 73.7707 81.8584 73.84 81.7944 73.904C81.741 73.968 81.6717 74 81.5864 74H80.4344C80.3597 74 80.2904 73.9733 80.2264 73.92C80.173 73.856 80.1464 73.7813 80.1464 73.696V66.368C80.1464 66.2827 80.173 66.2133 80.2264 66.16C80.2904 66.096 80.3597 66.064 80.4344 66.064H81.5384C81.6237 66.064 81.693 66.096 81.7464 66.16C81.8104 66.2133 81.8424 66.2827 81.8424 66.368V67.008C82.0557 66.6773 82.3597 66.4107 82.7544 66.208C83.1597 66.0053 83.6077 65.904 84.0984 65.904C84.9624 65.904 85.6344 66.1493 86.1144 66.64C86.605 67.1307 86.8504 67.808 86.8504 68.672V73.696C86.8504 73.7707 86.8184 73.84 86.7544 73.904C86.701 73.968 86.6317 74 86.5464 74ZM51.392 92H50.16C50.0853 92 50.016 91.968 49.952 91.904C49.888 91.84 49.856 91.7707 49.856 91.696V83.008C49.856 82.9333 49.824 82.8693 49.76 82.816C49.7067 82.752 49.6373 82.72 49.552 82.72H46.48C46.4053 82.72 46.336 82.688 46.272 82.624C46.208 82.56 46.176 82.4907 46.176 82.416V81.408C46.176 81.3333 46.2027 81.2693 46.256 81.216C46.32 81.152 46.3947 81.12 46.48 81.12H55.072C55.1573 81.12 55.2267 81.152 55.28 81.216C55.344 81.2693 55.376 81.3333 55.376 81.408V82.416C55.376 82.4907 55.344 82.56 55.28 82.624C55.2267 82.688 55.1573 82.72 55.072 82.72H51.984C51.9093 82.72 51.84 82.7467 51.776 82.8C51.7227 82.8533 51.696 82.9227 51.696 83.008V91.696C51.696 91.7707 51.664 91.84 51.6 91.904C51.5467 91.968 51.4773 92 51.392 92ZM58.6553 83.904C59.8286 83.904 60.8153 84.2987 61.6153 85.088C62.4153 85.8773 62.8153 86.8533 62.8153 88.016C62.8153 89.1787 62.4153 90.1547 61.6153 90.944C60.8153 91.7333 59.8286 92.128 58.6553 92.128C57.4819 92.128 56.4953 91.7333 55.6953 90.944C54.8953 90.1547 54.4953 89.1787 54.4953 88.016C54.4953 86.8533 54.8953 85.8773 55.6953 85.088C56.4953 84.2987 57.4819 83.904 58.6553 83.904ZM56.2553 88.016C56.2553 88.72 56.4846 89.312 56.9433 89.792C57.4126 90.272 57.9833 90.512 58.6553 90.512C59.3166 90.512 59.8819 90.272 60.3513 89.792C60.8206 89.3013 61.0553 88.7093 61.0553 88.016C61.0553 87.3227 60.8206 86.736 60.3513 86.256C59.8819 85.7653 59.3166 85.52 58.6553 85.52C57.9833 85.52 57.4126 85.76 56.9433 86.24C56.4846 86.72 56.2553 87.312 56.2553 88.016ZM70.5936 92H69.4896C69.415 92 69.3456 91.968 69.2816 91.904C69.2176 91.84 69.1856 91.7707 69.1856 91.696V91.024C68.9723 91.3547 68.663 91.6213 68.2576 91.824C67.863 92.0267 67.4203 92.128 66.9296 92.128C66.0656 92.128 65.3883 91.8827 64.8976 91.392C64.4176 90.9013 64.1776 90.224 64.1776 89.36V84.368C64.1776 84.2827 64.2096 84.2133 64.2736 84.16C64.3376 84.096 64.407 84.064 64.4816 84.064H65.6336C65.7083 84.064 65.7723 84.096 65.8256 84.16C65.8896 84.2133 65.9216 84.2827 65.9216 84.368V89.12C65.9216 89.5787 66.055 89.9413 66.3216 90.208C66.599 90.464 66.983 90.592 67.4736 90.592C67.9536 90.592 68.3483 90.4533 68.6576 90.176C68.9776 89.8987 69.1376 89.552 69.1376 89.136V84.368C69.1376 84.2827 69.1696 84.2133 69.2336 84.16C69.2976 84.096 69.367 84.064 69.4416 84.064H70.5936C70.6683 84.064 70.7323 84.096 70.7856 84.16C70.8496 84.2133 70.8816 84.2827 70.8816 84.368V91.696C70.8816 91.7813 70.8496 91.856 70.7856 91.92C70.7323 91.9733 70.6683 92 70.5936 92ZM78.4049 89.376C78.4582 89.2907 78.5169 89.2267 78.5809 89.184C78.6555 89.1413 78.7355 89.12 78.8209 89.12H79.9729C80.1222 89.12 80.2235 89.152 80.2769 89.216C80.3302 89.28 80.3302 89.376 80.2769 89.504C79.9889 90.304 79.4929 90.944 78.7889 91.424C78.0955 91.8933 77.3009 92.128 76.4049 92.128C75.2315 92.128 74.2449 91.7333 73.4449 90.944C72.6555 90.1547 72.2609 89.1787 72.2609 88.016C72.2609 86.8533 72.6555 85.8773 73.4449 85.088C74.2449 84.2987 75.2315 83.904 76.4049 83.904C77.2902 83.904 78.0795 84.1387 78.7729 84.608C79.4662 85.0667 79.9675 85.6907 80.2769 86.48C80.3302 86.5973 80.3355 86.6933 80.2929 86.768C80.2502 86.832 80.1702 86.864 80.0529 86.864H78.8369C78.7302 86.864 78.6449 86.848 78.5809 86.816C78.5169 86.7733 78.4475 86.704 78.3729 86.608C78.1489 86.2773 77.8609 86.016 77.5089 85.824C77.1675 85.632 76.7995 85.536 76.4049 85.536C75.7435 85.536 75.1835 85.776 74.7249 86.256C74.2662 86.736 74.0369 87.3227 74.0369 88.016C74.0369 88.7093 74.2662 89.296 74.7249 89.776C75.1835 90.256 75.7435 90.496 76.4049 90.496C76.8209 90.496 77.2049 90.4 77.5569 90.208C77.9089 90.0053 78.1915 89.728 78.4049 89.376ZM88.062 92H86.91C86.8353 92 86.766 91.9733 86.702 91.92C86.6487 91.856 86.622 91.7813 86.622 91.696V86.944C86.622 86.496 86.478 86.144 86.19 85.888C85.9127 85.6213 85.5393 85.488 85.07 85.488C84.59 85.488 84.19 85.6267 83.87 85.904C83.5607 86.1707 83.406 86.512 83.406 86.928V91.696C83.406 91.7707 83.374 91.84 83.31 91.904C83.2567 91.968 83.1873 92 83.102 92H81.95C81.8753 92 81.806 91.9733 81.742 91.92C81.6887 91.856 81.662 91.7813 81.662 91.696V81.424C81.662 81.3387 81.6887 81.2693 81.742 81.216C81.806 81.152 81.8753 81.12 81.95 81.12H83.102C83.1873 81.12 83.2567 81.152 83.31 81.216C83.374 81.2693 83.406 81.3387 83.406 81.424V84.944C83.6193 84.624 83.918 84.3733 84.302 84.192C84.6967 84 85.134 83.904 85.614 83.904C86.478 83.904 87.15 84.1493 87.63 84.64C88.1207 85.1307 88.366 85.808 88.366 86.672V91.696C88.366 91.7707 88.334 91.84 88.27 91.904C88.2167 91.968 88.1473 92 88.062 92Z" fill="#2639E2"/>
</svg>
