<svg width="201" height="109" viewBox="0 0 201 109" fill="none" xmlns="http://www.w3.org/2000/svg">
<rect x="0.75" y="0.75" width="199.5" height="107.5" rx="53.75" fill="white" fill-opacity="0.1" stroke="white" stroke-width="1.5"/>
<rect x="0.75" y="0.75" width="155.5" height="107.5" rx="53.75" fill="white" fill-opacity="0.05" stroke="white" stroke-width="1.5"/>
<path d="M47.088 51.112C47.1093 51.208 47.0987 51.2827 47.056 51.336C47.024 51.3893 46.96 51.416 46.864 51.416H45.568C45.4827 51.416 45.4133 51.4 45.36 51.368C45.3173 51.3253 45.28 51.2613 45.248 51.176C45.056 50.6533 44.7307 50.2587 44.272 49.992C43.8133 49.7147 43.2533 49.576 42.592 49.576C41.8667 49.576 41.2853 49.704 40.848 49.96C40.4213 50.2053 40.208 50.5413 40.208 50.968C40.208 51.3733 40.4053 51.6933 40.8 51.928C41.2053 52.1627 41.968 52.3653 43.088 52.536C44.6133 52.7813 45.6853 53.16 46.304 53.672C46.9333 54.1733 47.248 54.8667 47.248 55.752C47.248 56.7973 46.8373 57.624 46.016 58.232C45.1947 58.8293 44.1067 59.128 42.752 59.128C41.5147 59.128 40.5013 58.8507 39.712 58.296C38.9227 57.7413 38.4587 56.9627 38.32 55.96C38.3093 55.864 38.3253 55.7947 38.368 55.752C38.4107 55.6987 38.4853 55.672 38.592 55.672H39.84C39.936 55.672 40.0107 55.6933 40.064 55.736C40.1173 55.768 40.1493 55.8213 40.16 55.896C40.2987 56.3973 40.6133 56.7973 41.104 57.096C41.6053 57.3947 42.2027 57.544 42.896 57.544C43.6533 57.544 44.256 57.4 44.704 57.112C45.1627 56.8133 45.392 56.4133 45.392 55.912C45.392 55.4427 45.184 55.0747 44.768 54.808C44.3627 54.5307 43.5413 54.3013 42.304 54.12C40.832 53.9067 39.808 53.576 39.232 53.128C38.656 52.6693 38.368 52.0347 38.368 51.224C38.368 50.2533 38.768 49.4747 39.568 48.888C40.368 48.2907 41.4133 47.992 42.704 47.992C43.888 47.992 44.8747 48.2747 45.664 48.84C46.4533 49.3947 46.928 50.152 47.088 51.112ZM54.1199 56.696C54.1945 56.6 54.2692 56.5307 54.3439 56.488C54.4292 56.4453 54.5252 56.424 54.6319 56.424H55.7519C55.8905 56.424 55.9812 56.4613 56.0239 56.536C56.0772 56.6107 56.0719 56.7173 56.0079 56.856C55.6985 57.5493 55.2025 58.104 54.5199 58.52C53.8479 58.9253 53.0852 59.128 52.2319 59.128C51.0265 59.128 50.0399 58.7493 49.2719 57.992C48.5145 57.224 48.1359 56.2373 48.1359 55.032C48.1359 53.8373 48.5252 52.8507 49.3039 52.072C50.0825 51.2933 51.0692 50.904 52.2639 50.904C53.4479 50.904 54.4239 51.2933 55.1919 52.072C55.9599 52.84 56.3439 53.8267 56.3439 55.032C56.3439 55.1813 56.3119 55.2987 56.2479 55.384C56.1839 55.4587 56.0932 55.496 55.9759 55.496H49.9599C50.0132 56.1253 50.2479 56.632 50.6639 57.016C51.0905 57.3893 51.6185 57.576 52.2479 57.576C52.6319 57.576 52.9892 57.5013 53.3199 57.352C53.6505 57.192 53.9172 56.9733 54.1199 56.696ZM52.2479 52.456C51.6612 52.456 51.1545 52.632 50.7279 52.984C50.3119 53.3253 50.0612 53.7733 49.9759 54.328H54.4719C54.3759 53.7627 54.1252 53.3093 53.7199 52.968C53.3145 52.6267 52.8239 52.456 52.2479 52.456ZM63.2605 56.696C63.3352 56.6 63.4098 56.5307 63.4845 56.488C63.5698 56.4453 63.6658 56.424 63.7725 56.424H64.8925C65.0312 56.424 65.1218 56.4613 65.1645 56.536C65.2178 56.6107 65.2125 56.7173 65.1485 56.856C64.8392 57.5493 64.3432 58.104 63.6605 58.52C62.9885 58.9253 62.2258 59.128 61.3725 59.128C60.1672 59.128 59.1805 58.7493 58.4125 57.992C57.6552 57.224 57.2765 56.2373 57.2765 55.032C57.2765 53.8373 57.6658 52.8507 58.4445 52.072C59.2232 51.2933 60.2098 50.904 61.4045 50.904C62.5885 50.904 63.5645 51.2933 64.3325 52.072C65.1005 52.84 65.4845 53.8267 65.4845 55.032C65.4845 55.1813 65.4525 55.2987 65.3885 55.384C65.3245 55.4587 65.2338 55.496 65.1165 55.496H59.1005C59.1538 56.1253 59.3885 56.632 59.8045 57.016C60.2312 57.3893 60.7592 57.576 61.3885 57.576C61.7725 57.576 62.1298 57.5013 62.4605 57.352C62.7912 57.192 63.0578 56.9733 63.2605 56.696ZM61.3885 52.456C60.8018 52.456 60.2952 52.632 59.8685 52.984C59.4525 53.3253 59.2018 53.7733 59.1165 54.328H63.6125C63.5165 53.7627 63.2658 53.3093 62.8605 52.968C62.4552 52.6267 61.9645 52.456 61.3885 52.456ZM72.0121 57.416H74.3001C75.3881 57.416 76.2948 57.048 77.0201 56.312C77.7455 55.576 78.1081 54.6587 78.1081 53.56C78.1081 52.4507 77.7455 51.5333 77.0201 50.808C76.2948 50.072 75.3881 49.704 74.3001 49.704H72.0121C71.9375 49.704 71.8681 49.736 71.8041 49.8C71.7401 49.8533 71.7081 49.9227 71.7081 50.008V57.128C71.7081 57.2027 71.7348 57.272 71.7881 57.336C71.8521 57.3893 71.9268 57.416 72.0121 57.416ZM79.9961 53.592C79.9961 55.16 79.4575 56.456 78.3801 57.48C77.3028 58.4933 75.9481 59 74.3161 59H70.1561C70.0815 59 70.0121 58.9733 69.9481 58.92C69.8948 58.856 69.8681 58.7813 69.8681 58.696V48.424C69.8681 48.3387 69.8948 48.2693 69.9481 48.216C70.0121 48.152 70.0815 48.12 70.1561 48.12H74.3161C75.9481 48.12 77.3028 48.6373 78.3801 49.672C79.4575 50.696 79.9961 52.0027 79.9961 53.592ZM87.1043 56.696C87.1789 56.6 87.2536 56.5307 87.3283 56.488C87.4136 56.4453 87.5096 56.424 87.6163 56.424H88.7362C88.8749 56.424 88.9656 56.4613 89.0083 56.536C89.0616 56.6107 89.0563 56.7173 88.9923 56.856C88.6829 57.5493 88.1869 58.104 87.5043 58.52C86.8323 58.9253 86.0696 59.128 85.2163 59.128C84.0109 59.128 83.0243 58.7493 82.2563 57.992C81.4989 57.224 81.1203 56.2373 81.1203 55.032C81.1203 53.8373 81.5096 52.8507 82.2883 52.072C83.0669 51.2933 84.0536 50.904 85.2483 50.904C86.4323 50.904 87.4083 51.2933 88.1763 52.072C88.9443 52.84 89.3283 53.8267 89.3283 55.032C89.3283 55.1813 89.2963 55.2987 89.2323 55.384C89.1683 55.4587 89.0776 55.496 88.9603 55.496H82.9443C82.9976 56.1253 83.2323 56.632 83.6483 57.016C84.0749 57.3893 84.6029 57.576 85.2323 57.576C85.6163 57.576 85.9736 57.5013 86.3043 57.352C86.6349 57.192 86.9016 56.9733 87.1043 56.696ZM85.2323 52.456C84.6456 52.456 84.1389 52.632 83.7123 52.984C83.2963 53.3253 83.0456 53.7733 82.9603 54.328H87.4563C87.3603 53.7627 87.1096 53.3093 86.7043 52.968C86.2989 52.6267 85.8083 52.456 85.2323 52.456ZM94.2609 59H93.4929C92.6715 59 92.0742 58.8187 91.7009 58.456C91.3275 58.0827 91.1409 57.496 91.1409 56.696V52.584H90.2449C90.1595 52.584 90.0849 52.5573 90.0209 52.504C89.9675 52.44 89.9409 52.3707 89.9409 52.296V51.368C89.9409 51.2827 89.9729 51.2133 90.0369 51.16C90.1009 51.096 90.1702 51.064 90.2449 51.064H91.1409V49.384C91.1409 49.2987 91.1675 49.2293 91.2209 49.176C91.2849 49.112 91.3542 49.08 91.4289 49.08H92.5809C92.6662 49.08 92.7355 49.112 92.7889 49.176C92.8529 49.2293 92.8849 49.2987 92.8849 49.384V51.064H94.2449C94.3302 51.064 94.3995 51.096 94.4529 51.16C94.5169 51.2133 94.5489 51.2827 94.5489 51.368V52.296C94.5489 52.3707 94.5169 52.44 94.4529 52.504C94.3995 52.5573 94.3302 52.584 94.2449 52.584H92.8849V56.408C92.8849 56.792 92.9649 57.064 93.1249 57.224C93.2849 57.384 93.5515 57.464 93.9249 57.464H94.2609C94.3462 57.464 94.4155 57.496 94.4689 57.56C94.5329 57.6133 94.5649 57.6827 94.5649 57.768V58.712C94.5649 58.7867 94.5329 58.856 94.4689 58.92C94.4155 58.9733 94.3462 59 94.2609 59ZM103.135 59H102.031C101.956 59 101.887 58.9733 101.823 58.92C101.769 58.856 101.743 58.7813 101.743 58.696V57.896C101.412 58.2907 101.023 58.5947 100.575 58.808C100.127 59.0213 99.6414 59.128 99.1188 59.128C98.0094 59.128 97.0708 58.7333 96.3028 57.944C95.5454 57.1547 95.1668 56.1787 95.1668 55.016C95.1668 53.8533 95.5508 52.8773 96.3188 52.088C97.0868 51.2987 98.0254 50.904 99.1348 50.904C99.6574 50.904 100.137 51.0107 100.575 51.224C101.023 51.4267 101.412 51.7253 101.743 52.12V51.368C101.743 51.2827 101.769 51.2133 101.823 51.16C101.887 51.096 101.956 51.064 102.031 51.064H103.135C103.22 51.064 103.289 51.096 103.343 51.16C103.407 51.2133 103.439 51.2827 103.439 51.368V58.696C103.439 58.7707 103.407 58.84 103.343 58.904C103.289 58.968 103.22 59 103.135 59ZM96.9268 55.016C96.9268 55.72 97.1614 56.3173 97.6308 56.808C98.1001 57.288 98.6708 57.528 99.3428 57.528C100.015 57.528 100.58 57.288 101.039 56.808C101.508 56.328 101.743 55.7307 101.743 55.016C101.743 54.3013 101.508 53.704 101.039 53.224C100.58 52.744 100.015 52.504 99.3428 52.504C98.6708 52.504 98.1001 52.7493 97.6308 53.24C97.1614 53.72 96.9268 54.312 96.9268 55.016ZM107.192 49.032C107.192 49.32 107.085 49.5707 106.872 49.784C106.669 49.9867 106.429 50.088 106.152 50.088C105.875 50.088 105.629 49.9867 105.416 49.784C105.213 49.5707 105.112 49.32 105.112 49.032C105.112 48.7547 105.213 48.5147 105.416 48.312C105.629 48.0987 105.875 47.992 106.152 47.992C106.429 47.992 106.669 48.0987 106.872 48.312C107.085 48.5147 107.192 48.7547 107.192 49.032ZM106.712 59H105.56C105.485 59 105.416 58.9733 105.352 58.92C105.299 58.856 105.272 58.7813 105.272 58.696V51.368C105.272 51.2827 105.299 51.2133 105.352 51.16C105.416 51.096 105.485 51.064 105.56 51.064H106.712C106.797 51.064 106.867 51.096 106.92 51.16C106.984 51.2133 107.016 51.2827 107.016 51.368V58.696C107.016 58.7707 106.984 58.84 106.92 58.904C106.867 58.968 106.797 59 106.712 59ZM110.353 59H109.201C109.126 59 109.057 58.9733 108.993 58.92C108.939 58.856 108.913 58.7813 108.913 58.696V48.424C108.913 48.3387 108.939 48.2693 108.993 48.216C109.057 48.152 109.126 48.12 109.201 48.12H110.353C110.438 48.12 110.507 48.152 110.561 48.216C110.625 48.2693 110.657 48.3387 110.657 48.424V58.696C110.657 58.7707 110.625 58.84 110.561 58.904C110.507 58.968 110.438 59 110.353 59Z" fill="white"/>
</svg>
