<svg width="140" height="64" viewBox="0 0 140 64" fill="none" xmlns="http://www.w3.org/2000/svg">
<g clip-path="url(#clip0_2509_1334)">
<path d="M139.147 63.1331L138.865 62.4179C139.03 62.2775 139.05 62.1857 139.05 62.0331C139.048 61.7677 138.857 61.6045 138.549 61.6045H138.16V63.1347H138.378V62.4471H138.643L138.918 63.1331H139.147ZM138.378 62.2726V61.7912H138.523C138.732 61.7912 138.822 61.8813 138.823 62.0242C138.823 62.15 138.756 62.2726 138.523 62.2726H138.378Z" fill="#858689"/>
<path d="M138.611 63.7401C137.843 63.7401 137.219 63.1166 137.219 62.3495C137.219 61.5847 137.843 60.9629 138.611 60.9629C139.375 60.9629 140.001 61.5847 140.001 62.3495C140.001 63.1166 139.375 63.7401 138.611 63.7401ZM138.611 61.1382C137.941 61.1382 137.396 61.6846 137.396 62.3495C137.396 63.0216 137.941 63.5607 138.611 63.5607C139.277 63.5607 139.82 63.0216 139.82 62.3495C139.82 61.6846 139.277 61.1382 138.611 61.1382Z" fill="#858689"/>
<path d="M65.3955 49.4111L61.6607 61.0045L57.1621 49.4826H56.0078L61.4164 63.6193H61.9237L65.79 51.1573L69.7221 63.6193H70.2302L75.6128 49.4826H74.4318L69.9973 60.9948L66.2146 49.4111H65.3955Z" fill="#858689"/>
<path d="M80.2812 49.4707V63.5044H87.1475V62.6H81.3691V49.4707H80.2812Z" fill="#858689"/>
<path d="M89.1484 49.4707V63.5044H96.0131V62.6H90.2314V49.4707H89.1484Z" fill="#858689"/>
<path d="M97.9258 63.5047H99.0136V49.4727H97.9258V63.5047Z" fill="#858689"/>
<path d="M77.1875 63.5047H78.2818V49.4727H77.1875V63.5047Z" fill="#858689"/>
<path d="M106.353 49.3975L100.551 63.5042H101.562L103.55 58.6569H109.684L111.667 63.5042H112.685L106.884 49.3975H106.353ZM106.607 51.1623L109.315 57.7574H103.921L106.607 51.1623Z" fill="#858689"/>
<path d="M125.958 49.498L120.62 56.012L115.282 49.498H114.191V63.5041H115.282V51.0843H115.322L120.62 57.6283L125.913 51.0843H125.958V63.5041H127.047V49.498H125.958Z" fill="#858689"/>
<path d="M136.048 51.7714C135.162 50.6259 133.901 50.354 132.934 50.354C131.253 50.354 129.98 51.5059 129.98 53.0297C129.98 56.7632 136.651 54.9796 136.651 59.887C136.651 62.0415 134.866 63.7236 132.584 63.7236C131.436 63.7236 130.204 63.4102 128.99 62.4913V61.2192C130.357 62.514 131.436 62.7194 132.523 62.7194C134.188 62.7194 135.476 61.5066 135.476 59.9268C135.476 55.9433 128.809 57.6862 128.809 53.0703C128.809 50.9994 130.611 49.3571 132.834 49.3506C133.963 49.3506 135.405 49.8125 136.048 50.5821V51.7714Z" fill="#858689"/>
<path d="M20.9336 49.5146V63.5435H28.1457V61.7307H22.9493V49.5146H20.9336Z" fill="#858689"/>
<path d="M29.4336 49.5146V63.5435H36.6457V61.7307H31.4501V49.5146H29.4336Z" fill="#858689"/>
<path d="M37.9453 49.5146V63.5435H46.0926V61.7307H39.961V57.3737H45.7037V55.561H39.961V51.3242H45.9067V49.5146H37.9453Z" fill="#858689"/>
<path d="M56.4457 63.5402L53.8479 56.9865C55.3928 55.7103 55.5673 54.8442 55.5503 53.4405C55.5284 51.0132 53.7846 49.5146 50.9441 49.5146H47.4062V63.5451H49.4228V57.2714C49.4228 57.2714 51.0878 57.2731 51.8249 57.2682L54.361 63.5402H56.4457ZM49.4228 55.6462V51.243H50.7176C52.6724 51.243 53.4542 52.0467 53.4753 53.361C53.4964 54.5365 52.8778 55.6462 50.7176 55.6462H49.4228Z" fill="#858689"/>
<path d="M11.4844 49.5146V63.5207H19.6154V61.7104H13.4977V57.3583H19.2266V55.552H13.4977V51.3225H19.4319V49.5146H11.4844Z" fill="#858689"/>
<path d="M7.89774 49.5146L7.18579 50.2851L2.02028 55.906V49.5146H0.0078125V63.4923H2.02028V58.6937L4.25924 56.2405L7.19066 63.4956H9.26807V63.4939L8.53501 61.6901L5.69369 54.6655L8.75176 51.3177L10.3989 49.5146H7.89774Z" fill="#858689"/>
<path d="M0 0V42.4379H5.9208V32.4836L10.2628 28.168L16.3013 42.4379H22.3L14.3255 23.5042L19.924 17.3012L30.781 42.4379H33.0604L41.2061 22.996L49.4834 42.4379H51.7303L64.1368 13.8161H58.0618L50.5938 31.1822L43.3507 13.8161H39.1605L31.8566 31.1822L24.3472 13.8161H16.4725L5.9208 24.3485V0H0Z" fill="#CBDDDE"/>
</g>
<defs>
<clipPath id="clip0_2509_1334">
<rect width="140" height="63.7397" fill="white"/>
</clipPath>
</defs>
</svg>
