<svg width="126" height="126" viewBox="0 0 126 126" fill="none" xmlns="http://www.w3.org/2000/svg">
<circle cx="63" cy="63" r="63" fill="#FF5B2C"/>
<path d="M23.805 44.3037L22.3651 43.4726L21.353 38.5521C21.2501 38.0214 21.0485 37.6676 20.7482 37.4865C20.1434 37.1368 19.6333 37.322 19.2219 38.0337C19.0491 38.3341 18.9832 38.6303 19.0285 38.9183C19.0696 39.2104 19.2219 39.4613 19.4852 39.6794L18.5636 41.2839C17.9135 40.7943 17.5021 40.2019 17.3252 39.5025C17.1483 38.8031 17.3005 38.0378 17.7819 37.2027C18.3003 36.3058 18.8968 35.7421 19.5674 35.52C20.2422 35.2978 20.9169 35.3801 21.5957 35.7709C22.2828 36.1659 22.7312 36.8735 22.9411 37.8938L23.6281 41.2798L25.57 37.9103L27.01 38.7414L23.805 44.3037Z" fill="white"/>
<path d="M26.978 38.6338L22.3125 30.7346L23.773 28.9778L32.3881 32.1375L31.1621 33.6104L29.574 33.0097L27.3236 35.7127L28.1999 37.165L26.978 38.6338ZM26.4308 34.1781L27.9078 32.4049L24.6781 31.183L24.6411 31.2283L26.4308 34.1781Z" fill="white"/>
<path d="M37.525 28.1837C36.5211 28.9243 35.4885 29.1999 34.4353 29.0066C33.382 28.8132 32.4399 28.1549 31.6088 27.0318C30.7778 25.9086 30.424 24.8142 30.5474 23.7487C30.6708 22.6831 31.2386 21.7821 32.2465 21.0374C33.0817 20.4203 33.8963 20.1323 34.6986 20.1694C35.4967 20.2064 36.2537 20.5108 36.9572 21.0827L35.4227 22.2182C34.6739 21.7986 33.9457 21.8479 33.238 22.3746C32.695 22.7736 32.4029 23.2879 32.3617 23.9132C32.3206 24.5386 32.5674 25.2092 33.0982 25.9292C33.6289 26.6492 34.2008 27.0812 34.8097 27.2251C35.4185 27.3691 35.9945 27.2416 36.5376 26.8384C37.2452 26.3159 37.5085 25.633 37.3275 24.7937L38.8621 23.6582C39.1995 24.5016 39.2694 25.3121 39.0719 26.0896C38.8744 26.8713 38.3602 27.5666 37.525 28.1837Z" fill="white"/>
<path d="M46.8009 21.647C46.4717 22.6673 45.7394 23.4408 44.608 23.9756C43.4766 24.5104 42.4111 24.5763 41.4196 24.1813C40.4239 23.7864 39.6299 22.9553 39.0333 21.6922C38.4368 20.4292 38.3051 19.2855 38.6302 18.2651C38.9593 17.2448 39.6875 16.4714 40.823 15.9365C41.9544 15.4017 43.02 15.3359 44.0156 15.7267C45.0112 16.1217 45.8094 16.9486 46.4059 18.2158C46.9984 19.4871 47.1341 20.6267 46.8009 21.647ZM42.1313 22.511C42.6991 22.7702 43.2915 22.7578 43.9004 22.4698C44.5093 22.1818 44.896 21.7375 45.0565 21.1327C45.2169 20.5279 45.1058 19.8203 44.7232 19.0098C44.3406 18.1993 43.8675 17.6645 43.2997 17.4012C42.732 17.142 42.1436 17.1543 41.5348 17.4423C40.9259 17.7303 40.5391 18.1746 40.3787 18.7794C40.2182 19.3842 40.3293 20.0918 40.7078 20.9023C41.0863 21.7128 41.5636 22.2518 42.1313 22.511Z" fill="white"/>
<path d="M49.1374 21.8477L47.1133 13.4465L49.4584 12.8829L54.021 17.8775L54.0868 17.861L52.7003 12.1012L54.4982 11.6692L56.5224 20.0703L54.1855 20.634L49.6188 15.6394L49.5612 15.6517L50.9477 21.4116L49.1374 21.8477Z" fill="white"/>
<path d="M59.7826 19.8652L59.4164 12.9L56.8286 13.0357L56.7422 11.3695L63.7651 10.9992L63.8515 12.6654L61.2637 12.8012L61.6298 19.7624L59.7826 19.8652Z" fill="white"/>
<path d="M65.0117 19.7906L65.5836 11.1673L67.435 11.2908L66.859 19.9141L65.0117 19.7906Z" fill="white"/>
<path d="M68.2969 19.9061L70.0824 11.4515L72.4398 11.9493L74.4105 18.4209L74.4764 18.4333L75.6983 12.6364L77.5085 13.019L75.7229 21.4736L73.3696 20.9758L71.3907 14.5042L71.3331 14.4919L70.1112 20.2888L68.2969 19.9061Z" fill="white"/>
<path d="M76.9922 21.9594L80.3041 13.9779L85.7224 16.2242L85.0847 17.7671L81.382 16.2325L80.6744 17.9399L84.1467 19.3798L83.5543 20.8033L80.0819 19.3633L79.3455 21.1324L83.1634 22.7164L82.5257 24.251L76.9922 21.9594Z" fill="white"/>
<path d="M83.457 24.6832L88.1719 17.4423L90.1919 18.7588L89.6941 25.506L89.7476 25.5431L92.9813 20.5773L94.5324 21.5852L89.8175 28.8262L87.8016 27.5138L88.2912 20.7624L88.2418 20.7295L85.0081 25.6953L83.457 24.6832Z" fill="white"/>
<path d="M92.2187 31.0557L97.0241 26.0035L95.148 24.2179L96.3 23.0084L101.397 27.8548L100.245 29.0644L98.3694 27.2789L93.5641 32.3311L92.2187 31.0557Z" fill="white"/>
<path d="M94.7656 33.2938L103.492 30.455L104.886 32.2611L99.933 39.9834L98.7605 38.4653L99.6903 37.0459L97.5386 34.2606L95.9299 34.7995L94.7656 33.2938ZM99.2336 33.7258L100.645 35.5524L102.541 32.6643L102.504 32.6149L99.2336 33.7258Z" fill="white"/>
<path d="M100.066 40.4445L107.69 36.3756L108.562 38.013L102.403 41.2961L104.263 44.7808L102.794 45.5625L100.066 40.4445Z" fill="white"/>
<path d="M104.5 49.7952L113.601 50.9883L114.082 53.2223L106.281 58.0605L105.878 56.1886L107.331 55.3082L106.59 51.8687L104.907 51.663L104.5 49.7952ZM108.347 52.1074L108.832 54.3619L111.786 52.5722L111.774 52.5147L108.347 52.1074Z" fill="white"/>
<path d="M106.238 58.5056L114.878 58.2259L114.997 61.9286C115.026 62.8008 114.788 63.5084 114.29 64.0556C113.788 64.6028 113.109 64.8908 112.257 64.9155C111.854 64.9278 111.484 64.8785 111.146 64.7674C110.809 64.6563 110.542 64.5164 110.344 64.3518C110.147 64.1873 109.982 64.0145 109.842 63.8417C109.702 63.6689 109.608 63.5208 109.558 63.3974L109.48 63.2122L106.465 65.4092L106.399 63.311L109.299 61.2415L109.266 60.2582L106.304 60.3529L106.238 58.5056ZM110.924 60.213L110.982 61.9368C110.994 62.2824 111.105 62.5622 111.323 62.772C111.541 62.9818 111.829 63.0847 112.191 63.0723C112.554 63.06 112.837 62.9407 113.039 62.7144C113.241 62.4881 113.335 62.2042 113.327 61.8587L113.269 60.1348L110.924 60.213Z" fill="white"/>
<path d="M105.723 69.8559C105.913 68.6217 106.447 67.7001 107.328 67.0912C108.212 66.4823 109.344 66.2848 110.726 66.4947C112.108 66.7045 113.133 67.227 113.795 68.0704C114.458 68.9097 114.696 69.9506 114.507 71.1889C114.351 72.2134 113.976 72.995 113.384 73.534C112.791 74.073 112.043 74.3897 111.138 74.4844L111.426 72.596C112.252 72.3656 112.734 71.8143 112.865 70.9421C112.968 70.2756 112.812 69.7037 112.401 69.2347C111.989 68.7657 111.339 68.4612 110.455 68.3255C109.57 68.1897 108.858 68.2884 108.328 68.6135C107.797 68.9385 107.476 69.4404 107.377 70.1069C107.246 70.975 107.542 71.6456 108.262 72.1105L107.974 73.9989C107.139 73.641 106.517 73.1185 106.11 72.4273C105.703 71.7361 105.567 70.8845 105.723 69.8559Z" fill="white"/>
<path d="M105.037 74.3937L113.17 77.3147L112.541 79.0632L109.286 77.8948L108.118 81.145L111.372 82.3134L110.747 84.0537L102.613 81.1327L103.239 79.3924L106.551 80.5814L107.719 77.3312L104.407 76.1422L105.037 74.3937Z" fill="white"/>
<path d="M101.872 82.3713L109.528 86.3827L108.668 88.0283L101.012 84.017L101.872 82.3713Z" fill="white"/>
<path d="M99.2603 86.9093L105.004 90.863L106.472 88.7278L107.847 89.6741L103.856 95.4668L102.482 94.5205L103.95 92.3853L98.207 88.4316L99.2603 86.9093Z" fill="white"/>
<path d="M96.2606 91.0775L102.494 97.0636L98.4328 101.293L97.2274 100.137L100.004 97.2446L98.6715 95.9651L96.0672 98.6764L94.9523 97.6067L97.5565 94.8954L96.1742 93.5666L93.3107 96.5493L92.1094 95.3974L96.2606 91.0775Z" fill="white"/>
<path d="M88.2701 98.1989C89.2781 97.4624 90.3107 97.195 91.364 97.3925C92.4172 97.5941 93.3552 98.2565 94.1781 99.3878C95.0009 100.519 95.3465 101.614 95.2189 102.675C95.0873 103.737 94.5154 104.638 93.5033 105.374C92.664 105.983 91.8453 106.267 91.0472 106.226C90.249 106.18 89.4961 105.872 88.7926 105.296L90.3354 104.173C91.0842 104.596 91.8124 104.551 92.5242 104.033C93.0714 103.634 93.3635 103.124 93.4087 102.498C93.454 101.873 93.2112 101.198 92.6846 100.474C92.158 99.7499 91.5903 99.3138 90.9814 99.1657C90.3725 99.0176 89.7965 99.141 89.2493 99.5401C88.5375 100.058 88.2701 100.737 88.447 101.581L86.9042 102.704C86.571 101.856 86.5051 101.046 86.7109 100.272C86.9124 99.503 87.4308 98.8078 88.2701 98.1989Z" fill="white"/>
<path d="M82.99 101.605L86.0757 107.858L88.4002 106.71L89.1366 108.208L82.8296 111.318L82.0931 109.821L84.4177 108.673L81.332 102.419L82.99 101.605Z" fill="white"/>
<path d="M72.6221 106.389C73.0623 105.558 73.8234 104.991 74.8972 104.682C75.971 104.374 76.9172 104.456 77.736 104.929C78.5506 105.402 79.1224 106.208 79.4516 107.356L80.8092 112.108L79.0319 112.614L77.6742 107.862C77.485 107.196 77.1805 106.731 76.765 106.459C76.3495 106.188 75.8805 106.13 75.358 106.278C74.8355 106.426 74.4693 106.727 74.2595 107.175C74.0497 107.624 74.0373 108.179 74.2266 108.846L75.5884 113.597L73.8069 114.104L72.4493 109.352C72.1242 108.208 72.1818 107.221 72.6221 106.389Z" fill="white"/>
<path d="M70.1682 105.991L70.954 114.598L67.2636 114.935C66.3955 115.013 65.6755 114.82 65.0995 114.351C64.5235 113.882 64.1985 113.224 64.1203 112.372C64.0833 111.973 64.1121 111.599 64.2026 111.253C64.2931 110.908 64.4166 110.632 64.5729 110.43C64.7292 110.225 64.8856 110.048 65.0501 109.9C65.2147 109.747 65.3546 109.649 65.4739 109.591L65.6549 109.5L63.2852 106.616L65.3752 106.427L67.6133 109.2L68.5924 109.11L68.325 106.156L70.1682 105.991ZM68.7405 110.768L67.0249 110.924C66.6793 110.957 66.4078 111.084 66.2103 111.315C66.0128 111.541 65.9264 111.837 65.9594 112.199C65.9923 112.561 66.128 112.837 66.3626 113.026C66.6012 113.216 66.8892 113.294 67.2348 113.261L68.9504 113.104L68.7405 110.768Z" fill="white"/>
<path d="M63.3943 106.662L59.5682 115.001L57.293 114.803L54.9727 105.925L56.8816 106.094L57.293 107.739L60.7983 108.048L61.4895 106.501L63.3943 106.662ZM60.0495 109.653L57.7497 109.451L58.589 112.804L58.6507 112.808L60.0495 109.653Z" fill="white"/>
<path d="M54.5589 105.715L52.3784 114.079L50.5805 113.61L52.3414 106.859L48.5234 105.863L48.9431 104.254L54.5589 105.715Z" fill="white"/>
<path d="M44.6704 102.626L37.6228 108.505L35.6562 107.345L37.3883 98.3347L39.0381 99.3097L38.7007 100.972L41.7329 102.757L43.0247 101.659L44.6704 102.626ZM40.3587 103.885L38.3716 102.712L37.6845 106.098L37.738 106.127L40.3587 103.885Z" fill="white"/>
<path d="M36.1501 97.318L31.9536 105.209L30.5466 103.909L33.624 98.5893L33.5787 98.5482L28.4195 101.938L26.9672 100.597L29.9541 95.1992L29.9048 95.154L24.8443 98.6263L23.4414 97.3304L30.9909 92.5374L32.4802 93.9156L29.5016 99.3134L34.6566 95.9274L36.1501 97.318Z" fill="white"/>
<path d="M29.8766 91.3775L21.0271 93.8008L19.7187 91.9288L25.0342 84.4493L26.1327 86.0209L25.1371 87.395L27.153 90.2791L28.7864 89.8142L29.8766 91.3775ZM25.4333 90.7357L24.1127 88.8432L22.0803 91.6367L22.1132 91.6861L25.4333 90.7357Z" fill="white"/>
<path d="M24.9026 84.0339L17.0445 87.6338L15.5017 84.2643C15.1397 83.4703 15.0821 82.7256 15.3331 82.0262C15.584 81.3268 16.0983 80.8002 16.8759 80.4463C17.242 80.2777 17.6 80.183 17.9579 80.1542C18.3158 80.1254 18.612 80.1501 18.8589 80.2283C19.1057 80.3065 19.3238 80.397 19.5172 80.5039C19.7146 80.6068 19.8586 80.7096 19.9491 80.8043L20.0931 80.9442L22.0268 77.7516L22.899 79.6564L21.0271 82.6886L21.4344 83.5813L24.1291 82.3471L24.9026 84.0339ZM19.9203 84.2725L19.2045 82.705C19.0605 82.3923 18.8465 82.1784 18.5668 82.0673C18.287 81.9562 17.9785 81.9768 17.6493 82.1249C17.3202 82.2771 17.1021 82.4952 17.0034 82.7791C16.9047 83.0671 16.9252 83.3674 17.0692 83.6801L17.7892 85.2476L19.9203 84.2725Z" fill="white"/>
<path d="M21.7847 76.9862L13.4 79.0762L12.5936 75.8424C12.3015 74.6699 12.4414 73.6455 13.0091 72.765C13.581 71.8887 14.519 71.2839 15.8273 70.9589C17.1356 70.6339 18.2506 70.7203 19.1639 71.2305C20.0773 71.7365 20.6821 72.5758 20.9742 73.7524L21.7847 76.9862ZM19.7193 75.5874L19.3779 74.2132C19.2256 73.6043 18.8801 73.16 18.337 72.8761C17.7939 72.5923 17.1068 72.5552 16.2758 72.7609C15.4447 72.9666 14.8564 73.3246 14.5149 73.8265C14.1693 74.3325 14.0747 74.888 14.2269 75.4969L14.5684 76.871L19.7193 75.5874Z" fill="white"/>
<path d="M19.8751 65.9641C19.9368 66.9515 19.7558 67.7743 19.332 68.4367C18.9041 69.0991 18.2623 69.5023 17.3983 69.6504L17.279 67.8031C17.6205 67.7167 17.8797 67.5193 18.0566 67.2148C18.2335 66.9104 18.3076 66.5277 18.2788 66.067C18.2088 65.0014 17.8262 64.4912 17.1309 64.5365C16.8676 64.5529 16.6619 64.6846 16.5179 64.9356C16.3739 65.1824 16.2875 65.4869 16.2546 65.8448C16.2217 66.2027 16.1682 66.5936 16.0818 67.0173C15.9995 67.4452 15.8926 67.836 15.7691 68.2022C15.6457 68.5643 15.4112 68.8769 15.0697 69.1361C14.7283 69.3994 14.288 69.5475 13.745 69.5805C12.9386 69.6339 12.2968 69.3747 11.8195 68.8029C11.3423 68.231 11.0708 67.4781 11.0132 66.5401C10.9473 65.5362 11.1284 64.7422 11.5562 64.1539C11.9841 63.5655 12.5724 63.1994 13.3253 63.0472L13.4446 64.8944C13.1608 64.9767 12.9427 65.1454 12.7946 65.4005C12.6465 65.6555 12.5848 65.9806 12.6095 66.3714C12.6383 66.8075 12.7493 67.1366 12.9386 67.3588C13.132 67.581 13.3582 67.6838 13.6215 67.6633C13.8931 67.6468 14.107 67.511 14.2634 67.2642C14.4197 67.0132 14.5184 66.7129 14.5596 66.3549C14.6048 65.997 14.6665 65.6062 14.7571 65.1783C14.8435 64.7504 14.9504 64.3596 15.0697 63.9975C15.189 63.6355 15.4153 63.3228 15.7445 63.0636C16.0736 62.8044 16.4932 62.6563 17.0034 62.6234C17.7768 62.574 18.431 62.8415 18.9658 63.4339C19.5007 64.0222 19.8051 64.8656 19.8751 65.9641Z" fill="white"/>
<ellipse cx="17.1082" cy="51.7034" rx="2.38001" ry="2.38001" transform="rotate(-151.262 17.1082 51.7034)" fill="white"/>
<g clip-path="url(#clip0_2529_1928)">
<path d="M83.6055 55.6225C83.4442 54.9093 83.3163 54.1851 83.1152 53.4839C82.7798 52.3106 82.2133 52.0279 81.0855 52.4399C79.4579 53.0348 78.0108 53.9123 76.9218 55.2906C76.3821 54.5028 75.8489 53.7392 75.3393 52.9581C75.2802 52.8682 75.3296 52.6765 75.3758 52.5494C75.7231 51.5995 75.9833 50.6343 76.0531 49.6154C76.1789 47.7672 75.6102 46.1764 74.3986 44.8135C73.5794 43.8921 72.6119 43.1657 71.526 42.6048C70.7746 42.2169 70.1134 42.4262 69.7328 43.1789C68.9405 44.7477 68.4922 46.3977 68.6363 48.1824C68.7448 49.5256 69.2899 50.6727 70.1328 51.6872C70.8423 52.5417 71.7023 53.2068 72.6344 53.7907C72.901 53.9583 73.1591 54.172 73.3558 54.4185C79.3428 61.8937 75.6919 73.3995 66.5356 75.9271C58.9704 78.0152 51.3331 73.1059 49.9538 65.2725C49.2539 61.2955 50.1441 57.7195 52.5651 54.5335C52.7629 54.2728 53.0328 54.046 53.3112 53.8762C54.4368 53.1859 55.4506 52.3697 56.2332 51.284C57.5728 49.4259 57.705 47.3771 57.0815 45.2429C56.8654 44.5034 56.5515 43.7869 56.2171 43.0923C55.9193 42.4733 55.2668 42.2312 54.6819 42.5215C52.8285 43.444 51.2912 44.7269 50.4419 46.7023C49.714 48.3949 49.8334 50.1325 50.4429 51.8121C50.7149 52.5604 50.6999 53.0939 50.1666 53.6943C49.7517 54.1632 49.4689 54.7548 49.112 55.318C48.2616 54.2158 47.1909 53.4073 45.976 52.797C45.4976 52.5571 44.9999 52.3478 44.4935 52.1791C43.9248 51.9896 43.3314 52.224 43.1056 52.7729C42.1875 55.0112 41.922 58.3407 43.7851 60.5779C44.6602 61.6285 45.7417 62.3965 46.9533 62.9794C47.2038 63.0999 47.3037 63.2369 47.322 63.525C47.365 64.2043 47.4596 64.8802 47.5327 65.5584C47.5456 65.6767 47.5521 65.7962 47.565 65.955C46.1997 65.703 44.873 65.771 43.5528 66.0449C42.6175 66.2388 42.2251 66.8797 42.4928 67.8219C43.0271 69.7052 43.8614 71.4132 45.3923 72.6732C46.6856 73.737 48.2143 74.0689 49.8366 74.0317C50.344 74.0196 50.8493 73.9298 51.3557 73.8893C51.461 73.8805 51.6019 73.8991 51.6728 73.9649C52.2265 74.4787 52.7672 75.0079 53.3144 75.5348C53.3091 75.5436 53.2994 75.5797 53.28 75.5863C51.1826 76.293 49.9194 77.8465 49.1432 79.8668C48.8959 80.5099 48.7304 81.1903 48.5723 81.864C48.424 82.4962 48.7529 83.1404 49.3636 83.2839C51.7588 83.8438 54.0853 83.7813 56.1483 82.2037C57.2976 81.325 57.9899 80.0925 58.4941 78.7438C58.55 78.5926 58.607 78.4425 58.6715 78.2694C61.5828 79.0648 64.4779 79.0648 67.3752 78.2563C67.5719 78.7252 67.7515 79.193 67.9622 79.6455C69.1555 82.207 71.1874 83.4713 73.9288 83.5666C74.6996 83.5929 75.4801 83.503 76.2477 83.4022C77.1658 83.2817 77.5744 82.6857 77.4034 81.7556C77.0755 79.9774 76.4004 78.3658 75.1469 77.0456C74.462 76.3247 73.6246 75.8569 72.7022 75.5315C73.2408 75.0144 73.7557 74.4962 74.3008 74.0163C74.4115 73.9188 74.648 73.9232 74.8168 73.9484C76.3542 74.1763 77.8635 74.1248 79.3149 73.4948C81.0479 72.7433 82.0972 71.3212 82.8604 69.6471C83.1507 69.0106 83.3593 68.3357 83.6044 67.6784C83.6044 67.4319 83.6044 67.1865 83.6044 66.9399C83.3324 66.4163 82.9325 66.1095 82.3347 66.0186C81.3263 65.8652 80.3211 65.7348 79.3009 65.8663C79.0278 65.9013 78.7526 65.9243 78.4742 65.9528C78.558 65.0457 78.6333 64.1692 78.7311 63.2938C78.7408 63.2106 78.8838 63.1262 78.9816 63.0725C79.4159 62.8315 79.8685 62.6244 80.29 62.3637C81.8209 61.4182 82.9583 60.1495 83.4012 58.3297C83.4743 58.0295 83.5367 57.7272 83.6033 57.4259C83.6055 56.8255 83.6055 56.224 83.6055 55.6225ZM78.5828 60.4475C78.4785 59.9446 78.3516 59.445 78.2774 58.9378C78.2334 58.6387 78.2119 58.3122 78.2828 58.0241C78.6462 56.5461 79.7664 55.8 80.9941 55.1492C81.737 57.1618 80.4684 59.9304 78.5828 60.4475ZM56.2408 77.7479C55.4506 80.2305 53.8079 81.2998 51.332 81.0829C51.6072 79.0013 54.082 77.3075 56.2408 77.7479ZM52.821 51.2183C51.9126 48.9953 52.3877 46.9039 54.5981 45.473C55.5312 47.7036 54.826 49.9846 52.821 51.2183ZM71.4164 45.4544C73.5912 46.9071 74.1255 48.8529 73.2451 51.1843C71.0928 49.8159 70.566 47.8811 71.4164 45.4544ZM45.0063 55.0901C46.1362 55.5787 47.2102 56.5724 47.5747 57.5562C47.7166 57.9375 47.809 58.3746 47.7789 58.7745C47.7381 59.3245 47.5596 59.8635 47.4403 60.4059C45.1794 59.2884 44.4215 57.29 45.0063 55.0901ZM74.6889 81.0873C72.3614 81.3743 69.9296 79.6499 69.8554 77.6778C72.1141 77.3601 74.2943 78.8862 74.6889 81.0873ZM80.7544 68.3248C79.9137 70.597 78.3581 71.7638 76.2563 71.5458C76.6627 70.7142 77.0669 69.8728 77.4894 69.0424C77.5496 68.9241 77.6926 68.8298 77.8184 68.7696C78.7408 68.3324 79.717 68.2448 80.7544 68.3248ZM49.7355 71.5085C47.8682 71.8175 45.7223 70.2946 45.2826 68.2985C46.3588 68.2163 47.3898 68.3204 48.3584 68.8265C48.4154 68.8561 48.4745 68.9054 48.5024 68.9613C48.9174 69.8104 49.3259 70.6617 49.7355 71.5085Z" fill="white"/>
<path d="M62.9912 51.8477C62.4601 51.874 62.1031 52.15 61.8677 52.6332C61.1066 54.1955 60.3304 55.7512 59.5746 57.3157C59.4402 57.5951 59.2972 57.7386 58.9618 57.7847C57.2524 58.0224 55.5495 58.3094 53.8434 58.5702C53.3177 58.6502 52.95 58.9109 52.7769 59.4313C52.6017 59.9627 52.7812 60.3954 53.15 60.7668C54.3906 62.0147 55.6312 63.2615 56.8794 64.5017C57.0568 64.6781 57.1224 64.8315 57.0761 65.101C56.7762 66.8463 56.5139 68.5981 56.2172 70.3445C56.1258 70.8846 56.243 71.3272 56.6601 71.6581C57.0955 72.0043 57.5664 71.9922 58.0523 71.7315C59.581 70.9142 61.1195 70.1155 62.645 69.2927C62.8976 69.1569 63.0879 69.1459 63.3459 69.285C64.8596 70.1024 66.3862 70.8923 67.9021 71.7041C68.3955 71.9681 68.8739 72.0262 69.333 71.6712C69.7834 71.3217 69.8813 70.855 69.7823 70.2853C69.4792 68.54 69.2072 66.7904 68.9427 65.0385C68.9201 64.8863 68.9889 64.6649 69.0954 64.5565C70.336 63.29 71.5906 62.0366 72.8441 60.7844C73.1806 60.448 73.3698 60.058 73.2774 59.5716C73.1753 59.0391 72.7689 58.6644 72.2292 58.5811C70.4833 58.3105 68.7385 58.029 66.9893 57.7814C66.7012 57.7408 66.5754 57.6105 66.4615 57.3749C65.6896 55.7874 64.9069 54.2065 64.1339 52.619C63.8964 52.1325 63.5319 51.8663 62.9912 51.8477ZM67.0151 68.4283C66.8431 68.345 66.7227 68.2902 66.6055 68.2289C65.6304 67.7151 64.6521 67.2067 63.6846 66.6797C63.232 66.4332 62.8019 66.4201 62.3483 66.6666C61.5807 67.0829 60.8055 67.485 60.0326 67.8926C59.7057 68.0646 59.3779 68.2333 58.993 68.4338C59.1972 67.1793 59.38 65.9961 59.5875 64.8172C59.6918 64.2223 59.595 63.7282 59.1413 63.2944C58.3393 62.5285 57.5685 61.7288 56.7859 60.941C56.7085 60.8633 56.645 60.7723 56.544 60.6518C57.7803 60.4667 58.9435 60.2815 60.111 60.1215C60.7066 60.0394 61.1152 59.7534 61.3764 59.1903C61.8451 58.1802 62.3493 57.1865 62.8417 56.1873C62.8858 56.0985 62.9481 56.0197 63.0266 55.898C63.591 57.0451 64.1404 58.1352 64.664 59.2385C64.9015 59.7403 65.2617 60.0229 65.7971 60.0985C66.4066 60.1851 67.0151 60.2815 67.6236 60.3746C68.2224 60.4667 68.8212 60.5609 69.3727 60.6474C68.5482 61.5228 67.7515 62.408 66.9098 63.2462C66.4464 63.7074 66.311 64.2037 66.426 64.8359C66.6367 66.0016 66.8119 67.1738 67.0151 68.4283Z" fill="white"/>
</g>
<defs>
<clipPath id="clip0_2529_1928">
<rect width="41.2083" height="41.2083" fill="white" transform="matrix(-1 0 0 1 83.6055 42.3965)"/>
</clipPath>
</defs>
</svg>
