<svg width="254" height="44" viewBox="0 0 254 44" fill="none" xmlns="http://www.w3.org/2000/svg">
<path d="M21.8032 7.24504C27.5191 11.3124 33.9972 14.5324 42.2535 16.4814C40.0518 7.03319 31.5838 0 21.4645 0C9.65155 0 0.125 9.57531 0.125 21.3538C0.125 21.9893 0.16734 22.6249 0.20968 23.2604C8.29667 19.1506 17.9926 12.2445 21.8032 7.24504Z" fill="#797979"/>
<path d="M251.755 11.6094H249.215C249.215 11.6094 243.838 18.007 242.525 19.5747C241.255 18.007 235.878 11.6094 235.878 11.6094H231.051C231.051 11.6094 240.112 22.4981 240.577 23.0913C240.577 23.8115 240.535 35.3358 240.535 35.3358H244.388C244.388 35.3358 244.43 23.8115 244.43 23.0913C244.896 22.5405 253.999 11.6517 253.999 11.6517L251.755 11.6094Z" fill="#797979"/>
<path d="M215.004 23.2606V26.8196C215.004 26.8196 218.265 26.8196 219.492 26.8196V30.8022C218.095 31.4378 216.486 31.7767 214.708 31.7767C211.914 31.7767 209.797 30.9717 208.23 29.3617C206.663 27.7517 205.901 25.7604 205.901 23.303C205.901 20.8456 206.706 18.8966 208.315 17.2866C209.924 15.6766 211.871 14.914 214.285 14.914C216.613 14.914 218.984 15.5919 221.313 16.9477L222.922 17.8798V13.4735L222.287 13.1769C219.492 11.8635 216.91 11.1855 214.496 11.1855C210.94 11.1855 207.891 12.3295 205.52 14.6174C203.107 16.9053 201.921 19.8288 201.879 23.2606C201.879 26.7348 203.107 29.6583 205.52 31.9886C207.934 34.3188 210.982 35.4628 214.581 35.5052C217.291 35.5052 220.001 34.8696 222.668 33.5562L223.261 33.2596L223.303 23.2606H215.004Z" fill="#797979"/>
<path d="M189.388 14.6592C191.801 17.0318 193.029 19.9129 193.029 23.3024C193.029 26.6495 191.801 29.5729 189.388 31.9032C186.974 34.2335 184.01 35.4198 180.539 35.4198C177.109 35.4198 174.145 34.2335 171.732 31.8608C169.318 29.4882 168.133 26.6071 168.133 23.26C168.133 19.8705 169.361 16.9895 171.774 14.6592C174.187 12.3289 177.151 11.1426 180.581 11.1426C184.01 11.1426 186.974 12.3289 189.388 14.6592ZM180.581 31.6914C182.994 31.6914 184.942 30.8864 186.593 29.2764C188.244 27.624 189.049 25.675 189.049 23.3024C189.049 20.8874 188.244 18.9384 186.636 17.286C184.984 15.6337 183.037 14.8287 180.623 14.8287C178.21 14.8287 176.22 15.6337 174.569 17.2437C172.917 18.896 172.113 20.845 172.07 23.2176C172.07 25.5903 172.875 27.5392 174.526 29.1916C176.177 30.8864 178.167 31.6914 180.581 31.6914Z" fill="#797979"/>
<path d="M150.181 31.522C150.181 29.573 150.223 11.3545 150.223 11.3545H146.37L146.328 35.0386L160.766 35.0809V31.522C160.766 31.522 151.917 31.522 150.181 31.522Z" fill="white"/>
<path d="M136.419 35.0391H132.312H132.227H130.746C128.29 29.5735 124.352 26.6925 120.753 25.1672L116.646 34.4036C116.477 34.7849 116.392 34.9967 116.392 34.9967H112.285L117.366 24.0232C114.572 23.3453 112.497 23.4301 112.497 23.4301C114.445 23.0064 116.223 22.7946 117.916 22.8369L123.294 11.1855H125.622L136.419 35.0391ZM121.642 23.1759C124.352 23.7267 126.639 24.8282 128.459 26.1417L124.479 16.7782L121.642 23.1759ZM121.981 27.4127C122.701 27.4127 123.251 28.0059 123.251 28.6838C123.251 29.4041 122.659 29.9549 121.981 29.9549C121.261 29.9549 120.711 29.3617 120.711 28.6838C120.711 27.9635 121.261 27.4127 121.981 27.4127Z" fill="white"/>
<path d="M101.957 11.2273L89.1283 11.1849L89.0859 34.869L103.228 34.9114V31.3524C103.228 31.3524 94.6325 31.3524 92.8966 31.3101C92.8966 29.8695 92.8966 26.1411 92.8966 24.7005C94.5902 24.7005 102.677 24.7429 102.677 24.7429V21.184C102.677 21.184 94.6325 21.184 92.8966 21.1416C92.8966 19.7434 92.8966 16.0997 92.8966 14.6592C94.6325 14.6592 102.974 14.7015 102.974 14.7015V11.1426L101.957 11.2273Z" fill="white"/>
<path d="M73.6712 25.7604L79.6412 34.8696H75.1108L71.0038 28.472C69.4795 26.0569 68.7174 25.2943 68.3787 25.0825C67.8706 24.7435 67.0238 24.5317 65.923 24.5317C65.923 24.5317 64.9491 24.5317 64.1023 24.5317C64.1023 26.2688 64.06 34.8696 64.06 34.8696H60.207L60.2494 11.1855H61.3502H66.8544C69.3949 11.1855 71.4272 11.7787 72.8244 12.965C74.3063 14.1937 75.0685 15.8461 75.0261 17.8798C75.0261 19.6169 74.391 21.8201 71.8083 23.3877C72.4434 23.9385 73.0361 24.7435 73.6712 25.7604ZM71.1308 17.8374C71.1308 16.8206 70.7921 16.1427 70.1146 15.5919C69.3525 14.9987 68.1247 14.7021 66.5581 14.7021C66.5581 14.7021 65.1608 14.7021 64.1447 14.7021C64.1447 16.1003 64.1447 19.5745 64.1447 21.0151C65.2032 21.0151 66.6427 21.0151 66.6427 21.0151C68.2093 21.0151 69.3949 20.7185 70.157 20.1253C70.8344 19.5745 71.1308 18.8543 71.1308 17.8374Z" fill="white"/>
<path d="M8.38281 38.5982C12.0241 41.3946 16.5545 43.0469 21.5083 43.0469C32.2627 43.0469 41.1542 35.1663 42.8054 24.8708C28.9602 22.7523 15.4113 27.6671 8.38281 38.5982Z" fill="white"/>
<path d="M42.9331 22.794H43.0178C43.0178 22.5398 42.9754 22.0737 43.0178 21.8195C40.6891 20.8451 38.064 20.04 34.465 19.1927C23.2449 16.5658 11.3896 21.1416 1.05859 28.3019C2.15944 31.6067 4.02241 34.5301 6.47814 36.9028C13.7607 26.2259 26.7591 20.379 42.9331 22.794Z" fill="white"/>
<path d="M42.5096 16.5236C34.1686 14.5747 27.6058 11.3123 21.8476 7.16016C20.7467 8.60069 19.1378 10.2531 17.1901 11.9055C17.0631 10.8039 16.9784 9.61754 16.9361 8.93964C16.3433 9.57517 14.2263 10.931 12.9561 11.8631C12.9138 11.9902 12.2787 14.2781 11.7706 16.1423C10.8814 16.7778 9.94996 17.4134 9.01847 18.0489C6.01232 20.0402 2.92148 21.9044 0 23.3873C0.0846805 24.4889 0.296382 25.5905 0.550424 26.6074C7.11316 23.345 15.0731 17.7947 22.398 12.0749C31.5435 16.6931 38.3179 18.981 43.0177 19.9979C42.933 18.8115 42.7636 17.6676 42.5096 16.5236Z" fill="white"/>
<path d="M42.1711 34.4033C43.145 34.4033 43.9071 35.2083 43.9071 36.1404C43.9071 37.1149 43.1026 37.8776 42.1711 37.8776C41.1973 37.8776 40.4352 37.0725 40.4352 36.1404C40.3929 35.166 41.1973 34.4033 42.1711 34.4033ZM42.1711 37.4962C42.8909 37.4962 43.4837 36.9031 43.4837 36.1404C43.4837 35.3778 42.9333 34.7846 42.1711 34.7846C41.4514 34.7846 40.8586 35.3778 40.8586 36.1404C40.8586 36.9031 41.4514 37.4962 42.1711 37.4962ZM41.4937 35.2083H42.0865C42.5099 35.2083 42.9333 35.2931 42.9333 35.7591C42.9333 36.0981 42.7216 36.3099 42.5099 36.3099L42.9756 37.0302H42.4675L42.0441 36.3099H41.9171V37.0302H41.4514V35.2083H41.4937ZM41.9171 35.971H42.1288C42.2558 35.971 42.4252 35.971 42.4252 35.7591C42.4252 35.5896 42.2558 35.5473 42.1288 35.5473H41.9171V35.971Z" fill="white"/>
</svg>
