<svg width="741" height="678" viewBox="0 0 741 678" fill="none" xmlns="http://www.w3.org/2000/svg">
<path d="M370.5 0C122.397 0 0 141.437 0 339C0 536.563 122.397 678 370.5 678C618.603 678 741 536.563 741 339C741 141.437 618.603 0 370.5 0ZM370.5 588.199C197.38 588.199 88.2143 507.378 88.2143 339C88.2143 170.623 197.38 89.8014 370.5 89.8014C542.518 89.8014 652.786 170.623 652.786 339C652.786 507.378 542.518 588.199 370.5 588.199ZM556.853 299.712C556.853 233.483 511.643 190.828 445.482 190.828L215.022 190.828L215.022 488.295H290.004V408.596H411.299L458.714 488.295L548.031 488.295L494 399.616C532.594 383.901 556.853 347.98 556.853 299.712ZM290.004 254.811H424.531C446.585 254.811 481.871 254.811 481.871 299.712C481.871 344.613 446.585 344.613 424.531 344.613H290.004V254.811Z" fill="white" fill-opacity="0.08"/>
</svg>
