<svg width="94" height="86" viewBox="0 0 94 86" fill="none" xmlns="http://www.w3.org/2000/svg">
<path d="M47 0C15.5268 0 0 17.9404 0 43C0 68.0596 15.5268 86 47 86C78.4732 86 94 68.0596 94 43C94 17.9404 78.4732 0 47 0ZM47 74.6093C25.0387 74.6093 11.1905 64.3576 11.1905 43C11.1905 21.6424 25.0387 11.3907 47 11.3907C68.8214 11.3907 82.8095 21.6424 82.8095 43C82.8095 64.3576 68.8214 74.6093 47 74.6093ZM70.6399 38.0166C70.6399 29.6159 64.9048 24.2053 56.5119 24.2053L27.2768 24.2053L27.2768 61.9371H36.7887V51.8278H52.1756L58.1905 61.9371L69.5208 61.9371L62.6667 50.6887C67.5625 48.6954 70.6399 44.1391 70.6399 38.0166ZM36.7887 32.3212H53.8542C56.6518 32.3212 61.128 32.3212 61.128 38.0166C61.128 43.7119 56.6518 43.7119 53.8542 43.7119H36.7887V32.3212Z" fill="#2639E2"/>
</svg>
