<svg width="69" height="65" viewBox="0 0 69 65" fill="none" xmlns="http://www.w3.org/2000/svg">
<path d="M43.4215 2.79604C21.6191 -3.76381 7.13682 5.38532 1.9316 22.6854C-3.27362 39.9856 3.75575 55.6071 25.5581 62.1669C47.3605 68.7268 61.8428 59.5776 67.048 42.2775C72.2533 24.9774 65.2239 9.35589 43.4215 2.79604ZM27.9241 54.3032C12.7109 49.7259 5.24729 39.7622 9.68355 25.0178C14.1198 10.2734 25.8423 6.08242 41.0555 10.6597C56.1718 15.2079 63.7323 25.2007 59.2961 39.9451C54.8598 54.6895 43.0405 58.8514 27.9241 54.3032ZM51.901 33.9683C53.6459 28.1688 50.7969 23.2382 44.9829 21.4889L24.7309 15.3955L16.8935 41.444L23.4827 43.4266L25.5825 36.4475L36.2414 39.6546L38.3083 47.8873L46.1571 50.2488L43.7455 41.0548C47.551 40.6991 50.6292 38.195 51.901 33.9683ZM29.6343 22.981L41.456 26.5379C43.394 27.121 46.4948 28.0539 45.3118 31.9858C44.1288 35.9176 41.028 34.9846 39.09 34.4015L27.2683 30.8447L29.6343 22.981Z" fill="#FFB800"/>
</svg>
