<svg width="48" height="48" viewBox="0 0 48 48" fill="none" xmlns="http://www.w3.org/2000/svg">
<path d="M0 27.5535V20.5558H8.94545L16.5818 21.7585L17.1273 20.4465L10.9091 15.8542L4.58182 9.51253L9.49091 4.59225L15.8182 10.8246L20.4 17.1663L21.7091 16.6196L20.5091 8.85649V0H27.4909V8.85649L26.2909 16.6196L27.6 17.1663L32.1818 10.8246L38.5091 4.59225L43.4182 9.51253L37.2 15.8542L30.8727 20.4465L31.4182 21.7585L39.0545 20.5558H48V27.5535H39.0545L31.4182 26.3508L30.8727 27.6629L37.2 32.2551L43.4182 38.5968L38.5091 43.5171L32.1818 37.1754L27.6 30.8337L26.2909 31.3804L27.4909 39.1435V48H20.5091V39.1435L21.7091 31.3804L20.4 30.8337L15.8182 37.1754L9.49091 43.5171L4.58182 38.5968L10.9091 32.2551L17.1273 27.6629L16.5818 26.3508L8.94545 27.5535H0Z" fill="#2639E2"/>
</svg>
