<svg width="240" height="60" viewBox="0 0 240 60" fill="none" xmlns="http://www.w3.org/2000/svg">
<path d="M17.5007 31.7393L12.3464 48.5281L7.91126 31.8592H0L8.47064 59.5607H15.4629L20.8569 42.692L26.1311 59.5607H33.1633L41.7139 31.8592H33.9625L29.4475 48.568L24.2132 31.7393H17.5007Z" fill="#CBDDDE"/>
<path d="M42.3945 45.7692V45.6493C42.3945 37.8145 47.9883 31.3389 55.9795 31.3389C65.1694 31.3389 69.3647 38.4541 69.3647 46.2889C69.3647 46.8885 69.3248 47.608 69.2449 48.3275H50.106C50.8652 51.8852 53.3424 53.7239 56.8186 53.7239C59.4557 53.7239 61.3336 52.8845 63.4912 50.8858L67.9663 54.8432C65.4091 58.0411 61.6932 59.9598 56.7387 59.9598C48.5078 59.9598 42.3945 54.1636 42.3945 45.7692ZM61.8131 43.4508C61.3336 39.9731 59.2959 37.6147 56.0195 37.6147C52.7831 37.6147 50.6654 39.9331 50.0661 43.4508H61.8131Z" fill="#CBDDDE"/>
<path d="M81.3109 12.3916H73.5195V59.3603H81.3109V12.3916Z" fill="#CBDDDE"/>
<path d="M95.3773 0H87.5859V59.3604H95.3773V0Z" fill="#CBDDDE"/>
<path d="M102.566 51.566V22.1855H110.358V30.8997H116.831V37.5753H110.358V50.2868C110.358 52.0856 111.117 52.965 112.875 52.965C114.313 52.965 115.592 52.6053 116.711 52.0057V58.2815C115.073 59.2409 113.155 59.8804 110.558 59.8804C105.763 59.8405 102.566 57.9217 102.566 51.566Z" fill="#7A7A7A"/>
<path d="M119.031 45.7692V45.6493C119.031 37.7346 125.384 31.3389 133.975 31.3389C142.485 31.3389 148.798 37.6546 148.798 45.5694V45.6893C148.798 53.604 142.445 59.9998 133.855 59.9998C125.344 59.9598 119.031 53.644 119.031 45.7692ZM141.087 45.7692V45.6493C141.087 41.612 138.17 38.0544 133.855 38.0544C129.38 38.0544 126.743 41.4921 126.743 45.5294V45.6493C126.743 49.6866 129.66 53.2443 133.975 53.2443C138.41 53.2443 141.087 49.8065 141.087 45.7692Z" fill="#7A7A7A"/>
<path d="M149.438 31.8592H157.349L161.784 48.5281L166.938 31.7393H173.651L178.885 48.568L183.4 31.8592H191.151L182.601 59.5607H175.569L170.294 42.692L164.9 59.5607H157.908L149.438 31.8592Z" fill="#7A7A7A"/>
<path d="M191.828 45.7692V45.6493C191.828 37.8145 197.422 31.3389 205.413 31.3389C214.603 31.3389 218.798 38.4541 218.798 46.2889C218.798 46.8885 218.758 47.608 218.678 48.3275H199.54C200.299 51.8852 202.776 53.7239 206.252 53.7239C208.849 53.7239 210.767 52.8845 212.925 50.8858L217.4 54.8432C214.843 58.0411 211.127 59.9598 206.172 59.9598C197.941 59.9598 191.828 54.1636 191.828 45.7692ZM211.207 43.4508C210.727 39.9731 208.69 37.6147 205.413 37.6147C202.177 37.6147 200.059 39.9331 199.46 43.4508H211.207Z" fill="#7A7A7A"/>
<path d="M223.195 31.859H230.987V37.4153C232.585 33.6179 235.142 31.1395 239.777 31.3394V39.4939H239.377C234.183 39.4939 231.027 42.6119 231.027 49.2075V59.3607H223.235V31.859H223.195Z" fill="#7A7A7A"/>
</svg>
